<svg xmlns="http://www.w3.org/2000/svg" width="1154.75" height="1528.736" viewBox="0 0 1154.75 1528.736">
  <g id="WAVE_BG1" data-name="WAVE BG1" transform="translate(767.303 1528.736) rotate(-159)" opacity="0.2">
    <g id="Group_822" data-name="Group 822" transform="translate(0 0)">
      <path id="Path_748" data-name="Path 748" d="M821.893,0c-47.918,5.79-85.653,20.365-115.4,44.124C668.157,74.871,643,121.192,618.841,166.115c-4.193,7.787-8.386,15.573-12.778,23.36C580.507,235.4,553.154,273.53,524.8,302.48c-34.74,35.539-71.078,57.7-108.414,66.086-3.993.8-7.986,1.6-12.179,2.4-24.957,4.991-50.913,9.983-63.291,33.742-9.384,17.969-5.59,36.537-1.6,56.3,2.2,10.582,4.392,21.763,4.392,32.544-.2,31.745-22.362,64.489-50.513,74.472-13.776,4.792-28.152,4.592-41.928,4.392-5.99,0-12.379-.2-18.368.2a79.8,79.8,0,0,0-30.747,7.587c-10.582,5.191-18.568,12.778-23.36,22.162-10.781,21.363-2.4,43.725,5.59,65.288,7.787,20.565,15.773,41.928,7.587,63.092-4.193,10.981-12.578,20.165-23.959,26.554a69.166,69.166,0,0,1-33.942,8.585c-12.179,0-24.358-2.6-35.938-4.991-9.584-2-19.566-4.193-29.749-4.792a76.347,76.347,0,0,0-34.341,5.391c-11.979,4.991-21.363,12.978-27.153,23.16-12.978,22.761-5.79,50.314,6.389,66.486,11.38,14.974,27.153,24.558,42.727,33.942,2.6,1.6,5.191,3.195,7.986,4.792,40.131,24.957,62.892,51.711,71.677,84.056,5.191,19.167,3.793,41.728-3.793,62.093-8.186,21.563-21.962,37.535-39.133,44.723l.2.4c17.17-7.188,31.146-23.16,39.332-44.923,7.787-20.565,9.184-43.326,3.993-62.493-8.785-32.344-31.745-59.1-71.877-84.255-2.6-1.6-5.391-3.195-7.986-4.792-15.374-9.384-31.346-18.967-42.527-33.942C1.7,834.766-5.286,807.213,7.492,784.652c8.585-15.174,29.15-30.547,61.1-28.351,9.983.6,19.966,2.8,29.549,4.792,11.58,2.4,23.759,4.991,35.938,5.191h.6a70.035,70.035,0,0,0,33.542-8.785c11.58-6.389,19.766-15.573,24.158-26.754,8.186-21.164.2-42.727-7.587-63.291-8.386-22.362-16.372-43.725-5.59-64.889,4.792-9.384,12.578-16.771,23.16-21.962a81.854,81.854,0,0,1,30.548-7.587c6.189-.4,12.379-.2,18.368-.2,13.776.2,28.152.4,42.128-4.393,28.351-9.983,50.713-42.926,50.913-74.871,0-10.981-2.2-21.962-4.393-32.744-3.993-19.766-7.787-38.334,1.6-56.1,12.179-23.56,37.935-28.551,62.892-33.542,4.193-.8,8.186-1.6,12.179-2.4,37.336-8.386,73.873-30.547,108.613-66.086,28.351-29.15,55.7-67.085,81.26-113.205,4.193-7.787,8.585-15.573,12.778-23.36,24.159-44.723,49.315-91.044,87.45-121.791C736.439,20.565,774.175,6.189,821.893.4Z" fill="#878787"/>
    </g>
    <g id="Group_823" data-name="Group 823" transform="translate(13.491 6.788)">
      <path id="Path_749" data-name="Path 749" d="M803.011,0C757.09,6.189,719.155,21.363,690.005,45.522c-36.338,30.148-59.9,75.071-82.658,118.4-4.193,8.186-8.785,16.571-13.177,24.757-37.535,69.281-99.829,155.732-183.684,175.3-3.594.8-6.988,1.6-10.781,2.4-23.36,4.991-49.914,10.582-62.093,34.341-9.184,17.769-5.79,36.138-2.2,55.7,2,10.582,3.993,21.363,3.793,32.145-.6,30.947-22.961,62.892-50.913,72.675-13.177,4.592-26.954,4.792-40.131,4.792-6.589,0-13.377,0-19.966.6a76.319,76.319,0,0,0-29.35,8.585,52.306,52.306,0,0,0-22.162,22.961c-10.382,21.164-2.6,42.926,5.191,64.09,7.387,20.365,14.974,41.329,6.788,61.894-6.788,16.971-27.353,34.341-57.7,34.74-12.179.2-23.959-2-35.339-3.993a207.047,207.047,0,0,0-29.35-3.793c-20.165-.8-46.52,6.589-59.3,29.749A57.7,57.7,0,0,0,.39,815.4a70.781,70.781,0,0,0,11.38,31.546c11.38,17.171,28.351,29.949,46.121,42.527,28.152,20.165,58.7,46.321,68.283,85.453,4.792,18.967,2.995,41.529-4.991,61.494-8.386,21.363-22.362,37.136-39.332,44.124l.2.4c17.17-7.188,31.146-22.961,39.532-44.524,7.787-20.165,9.584-42.727,4.991-61.894-9.783-39.332-40.131-65.487-68.682-85.653-17.769-12.578-34.541-25.356-45.921-42.527A70.872,70.872,0,0,1,.59,815a56.437,56.437,0,0,1,6.589-34.141c12.778-22.961,38.933-30.348,58.9-29.549,9.783.4,19.766,2.2,29.35,3.793,11.38,2,23.16,4.193,35.539,3.993,22.162-.2,48.716-11.181,58.1-34.94,8.386-20.764.6-41.928-6.589-62.293-7.587-20.964-15.573-42.727-5.191-63.691,5.191-10.382,18.768-28.351,51.112-31.346,6.589-.6,13.377-.6,19.766-.6,13.177,0,26.954-.2,40.131-4.792,28.152-9.783,50.513-41.928,51.112-73.074.2-10.781-1.8-21.563-3.793-32.145-3.594-19.367-6.988-37.735,2.2-55.3,12.179-23.759,38.534-29.15,61.894-34.141q5.69-1.2,10.781-2.4c83.856-19.566,146.349-106.217,183.884-175.5,4.392-8.186,8.785-16.572,13.177-24.757,22.761-43.326,46.121-88.049,82.458-118.2C718.955,21.962,756.89,6.589,802.811.6Z" fill="#878787"/>
    </g>
    <g id="Group_824" data-name="Group 824" transform="translate(25.721 13.776)">
      <path id="Path_750" data-name="Path 750" d="M785.191,0C740.467,6.389,703.331,22.162,674.78,46.92c-34.541,29.749-56.5,73.074-77.866,114.8-4.392,8.585-8.985,17.57-13.377,26.155-22.961,43.326-48.317,79.463-75.47,107.815-32.344,33.542-66.685,55.105-102.025,63.691-2.995.8-6.189,1.4-9.584,2.2-22.961,5.191-48.716,10.981-61.1,34.94-8.985,17.57-5.99,36.537-2.8,54.906,1.8,10.382,3.394,21.164,2.995,31.546-.6,14.575-5.99,29.948-15.573,43.326-9.584,13.177-22.162,23.16-35.539,27.752-12.778,4.393-25.756,4.792-38.334,5.191a191.873,191.873,0,0,0-21.363,1.4c-15.973,2.2-37.536,9.584-49.116,33.542-10.182,20.764-2.6,42.128,4.592,62.892,6.988,19.966,14.176,40.53,5.79,60.9-9.584,22.961-35.739,33.742-57.7,34.341-11.979.2-23.56-1.4-34.74-2.995-9.983-1.4-19.367-2.8-29.15-2.8-25.157-.2-46.52,11.38-57.3,30.947-12.578,22.761-6.589,48.716,3.195,65.487,9.184,15.973,22.961,31.146,41.728,46.32,28.351,22.961,56.9,48.517,65.487,86.851,4.193,18.967,2,41.129-5.99,60.9-8.585,20.964-22.561,36.537-39.732,43.725l.2.4c17.17-7.188,31.346-22.761,39.931-43.924,7.986-19.766,10.182-42.128,5.99-61.295-8.585-38.534-37.136-64.09-65.687-87.25C33.482,873.5,19.905,858.525,10.721,842.552c-9.584-16.771-15.573-42.527-3.195-65.088,10.781-19.367,31.945-30.947,56.9-30.547,9.584,0,19.167,1.4,29.15,2.8,11.181,1.6,22.761,3.194,34.74,2.995,21.962-.6,48.517-11.38,58.1-34.541,8.386-20.365,1.2-41.129-5.79-61.095-7.188-20.565-14.775-41.928-4.592-62.493,11.58-23.759,32.943-31.147,48.916-33.343a188.315,188.315,0,0,1,21.164-1.4c12.578-.4,25.756-.8,38.534-5.191,13.577-4.792,26.355-14.575,35.938-27.952s15.174-28.751,15.773-43.525c.4-10.582-1.4-21.363-2.995-31.745-2.995-18.169-6.189-37.136,2.8-54.506,12.179-23.759,37.935-29.549,60.7-34.74,3.394-.8,6.389-1.4,9.584-2.2,35.339-8.585,69.68-29.949,102.224-63.691,27.353-28.351,52.709-64.689,75.67-108.014,4.592-8.585,8.985-17.37,13.377-26.155,21.164-41.728,43.126-85.054,77.667-114.8C703.93,22.761,741.066,6.988,785.59.6Z" fill="#878787"/>
    </g>
    <g id="Group_825" data-name="Group 825" transform="translate(38.792 20.565)">
      <path id="Path_751" data-name="Path 751" d="M766.729,0C723.2,6.589,686.866,22.961,658.715,48.117c-32.744,29.35-53.109,71.078-73.075,111.409-4.393,8.985-8.984,18.368-13.577,27.353C550.5,228.807,525.943,264.146,499.388,292.1c-31.346,32.744-64.489,53.708-98.83,62.493-2.6.6-5.391,1.4-8.186,2-22.362,5.391-47.718,11.38-59.9,35.539-8.785,17.57-6.189,36.138-3.594,54.107,1.4,10.183,2.995,20.764,2.4,31.147-.8,14.375-6.389,29.35-15.973,42.128-9.584,12.978-22.162,22.561-35.539,27.153-12.179,4.193-24.558,4.792-36.537,5.391a201.683,201.683,0,0,0-22.561,2c-21.563,3.794-37.336,15.573-46.72,35.339-9.783,20.565-2.8,41.529,3.993,61.694,6.589,19.566,13.577,39.931,4.991,59.7-6.389,14.775-25.356,32.544-57.7,33.742-11.78.4-22.961-.8-33.742-2-9.983-1-19.566-2.2-29.15-1.8a68.6,68.6,0,0,0-30.548,7.787A57.82,57.82,0,0,0,7.234,772.872c-14.375,26.554-3.793,54.307,1.6,65.088a169.816,169.816,0,0,0,37.136,50.114c26.954,24.558,54.706,49.914,62.293,88.448,3.793,18.967,1.2,40.93-6.988,60.3-8.785,20.764-22.961,36.138-39.931,43.126l.2.4c17.17-7.188,31.346-22.561,40.131-43.326,8.186-19.566,10.781-41.529,6.988-60.7-7.587-38.733-35.539-64.09-62.493-88.648C31.193,874.1,18.415,856.728,9.031,837.761c-5.191-10.582-15.773-38.135-1.6-64.689a58.49,58.49,0,0,1,24.558-24.159,67.6,67.6,0,0,1,30.348-7.587c9.584-.2,19.167.8,29.15,1.8,10.781,1.2,21.962,2.4,33.742,2a78.9,78.9,0,0,0,33.542-8.785c11.38-5.99,19.966-14.775,24.358-25.356,8.585-19.966,1.6-40.331-4.991-60.1-6.788-20.165-13.976-41.129-4.193-61.494,9.384-19.566,25.157-31.546,46.52-35.14a206,206,0,0,1,22.561-2c11.979-.6,24.558-1.2,36.737-5.391,13.377-4.592,26.155-14.375,35.739-27.353s15.374-27.952,16.172-42.327c.6-10.382-1-20.964-2.4-31.146-2.6-17.969-5.391-36.338,3.394-53.708,12.179-23.959,37.336-30.148,59.7-35.339,2.8-.6,5.59-1.4,8.186-2,34.341-8.785,67.684-29.749,99.03-62.493,26.754-27.952,51.312-63.291,72.875-105.419,4.592-8.985,9.184-18.368,13.577-27.353,19.766-40.331,40.331-82.059,72.875-111.409C687.066,23.16,723.2,6.988,766.729.2Z" fill="#878787"/>
    </g>
    <g id="Group_826" data-name="Group 826" transform="translate(51.526 27.353)">
      <path id="Path_752" data-name="Path 752" d="M748.6,0c-41.728,6.788-78.266,23.959-105.419,49.515C612.438,78.465,593.271,118.6,574.9,157.729c-4.393,9.384-8.985,19.167-13.776,28.551C541.16,226.211,517,261.75,491.246,288.9c-30.148,31.745-62.293,52.31-95.636,61.295-2.2.6-4.592,1.2-6.988,1.8-21.763,5.59-46.72,11.979-58.9,36.338-8.785,17.37-6.389,35.539-4.193,53.109,1.2,10.182,2.6,20.565,1.8,30.747-2.2,29.15-24.558,58.3-51.911,67.684-11.58,3.993-23.56,4.792-34.94,5.59-8.386.6-16.172,1-23.959,2.8-20.365,4.392-34.341,16.172-44.324,37.336-9.584,20.165-2.8,40.73,3.594,60.7,6.189,19.367,12.778,39.332,4.193,58.7-10.183,22.961-37.336,32.344-57.5,33.343-11.38.6-22.162-.2-32.744-1-10.183-.8-19.766-1.4-29.35-.8-23.36,1.4-42.727,13.577-53.109,33.143A63.976,63.976,0,0,0,.09,803.42a92.386,92.386,0,0,0,6.988,30.747c6.589,16.172,16.172,36.737,32.744,53.708,1.6,1.8,3.394,3.394,4.991,5.191,23.56,23.959,47.918,48.716,54.107,84.655,6.389,37.136-11.38,87.25-48.117,102.424l.2.4c36.937-15.374,54.906-65.488,48.517-102.823-6.189-36.138-30.548-60.9-54.107-84.854-1.8-1.8-3.394-3.394-4.991-5.191C23.849,870.7,14.266,850.139,7.876,834.167c-12.179-29.949-6.589-51.312.2-64.09,10.382-19.566,29.549-31.546,52.709-32.943,9.584-.6,19.167,0,29.35.8,10.382.8,21.164,1.6,32.744,1,20.365-1,47.718-10.382,57.9-33.542,8.585-19.566,2.2-39.532-4.193-58.9-6.389-19.766-12.978-40.331-3.594-60.3,9.983-20.964,23.959-32.744,44.124-37.136,7.587-1.6,15.573-2.2,23.759-2.8,11.58-.8,23.36-1.6,35.14-5.59,27.553-9.384,49.914-38.733,52.111-68.083.8-10.183-.6-20.565-1.8-30.747-2.2-17.57-4.392-35.739,4.193-52.909,12.179-24.159,36.737-30.547,58.5-36.138,2.4-.6,4.592-1.2,6.988-1.8,33.343-8.985,65.687-29.549,95.835-61.295,25.756-27.153,50.114-62.692,70.08-102.823,4.592-9.384,9.184-19.167,13.776-28.551,18.368-38.933,37.336-79.264,68.283-108.014C671.137,24.758,707.674,7.787,749.2.8Z" fill="#878787"/>
    </g>
    <g id="Group_827" data-name="Group 827" transform="translate(64.264 34.141)">
      <path id="Path_753" data-name="Path 753" d="M730.276,0c-40.53,7.188-76.269,24.758-103.023,50.913-29.15,28.351-46.72,67.284-63.691,104.82-4.392,9.783-8.984,19.966-13.776,29.549-18.768,38.734-41.928,73.274-67.085,100.028-28.95,30.747-60.1,50.912-92.441,60.1-1.8.6-3.793,1-5.59,1.6-21.363,5.79-45.522,12.379-57.7,36.937-8.585,17.171-6.589,35.14-4.792,52.51,1,9.983,2.2,20.165,1.2,30.148-2.8,28.551-25.157,56.9-52.111,65.887-11.181,3.793-22.561,4.792-33.542,5.59-8.785.8-17.171,1.4-25.157,3.594-18.967,4.991-31.546,16.572-41.928,39.133-9.184,19.766-2.995,39.931,2.995,59.5,5.99,18.967,11.979,38.534,3.394,57.5-6.589,14.575-25.356,30.747-57.5,32.943-10.981.6-21.164.4-30.947,0-10.582-.4-20.565-.8-30.148.2-12.978,1.4-36.937,7.587-50.913,34.341-9.384,17.969-9.983,38.733-1.8,63.89,5.79,17.77,12.778,39.732,28.351,57.5,2.8,3.195,5.59,6.389,8.386,9.384,20.964,23.56,42.527,47.918,47.718,81.859,2.8,18.768-.4,40.331-8.985,59.1-9.184,20.165-23.56,35.14-40.53,42.128l.2.4c16.971-6.988,31.546-21.962,40.73-42.327,8.585-18.768,11.78-40.53,8.985-59.3-4.991-34.141-26.754-58.5-47.718-82.059-2.8-3.194-5.59-6.389-8.386-9.384C19.1,868.708,11.91,846.745,6.32,829.175c-7.986-24.957-7.587-45.921,1.8-63.691,13.976-26.554,37.735-32.744,50.713-34.141,9.584-1,19.566-.6,29.949-.2,9.983.4,20.165.6,31.146,0a91.472,91.472,0,0,0,33.343-8.785c11.38-5.79,19.966-14.176,24.558-24.358,8.785-19.167,2.6-38.933-3.195-57.9-5.99-19.367-12.179-39.332-2.995-59.1,10.382-22.362,22.961-33.942,41.728-38.933,7.787-2,16.172-2.8,24.957-3.594,10.981-1,22.362-1.8,33.542-5.59,27.153-9.184,49.715-37.735,52.51-66.286,1-9.983-.2-20.365-1.2-30.148-1.8-17.171-3.594-35.14,4.792-52.11,12.179-24.358,36.338-30.947,57.5-36.737,2-.6,3.793-1,5.59-1.6,32.344-9.184,63.491-29.35,92.641-60.1,25.157-26.754,48.517-61.295,67.284-100.028,4.592-9.783,9.184-19.766,13.776-29.549C581.731,118.8,599.3,80.063,628.451,51.512,655.2,25.357,690.744,7.787,731.274.6Z" fill="#878787"/>
    </g>
    <g id="Group_828" data-name="Group 828" transform="translate(75.363 40.93)">
      <path id="Path_754" data-name="Path 754" d="M713.786,0c-39.532,7.387-74.272,25.356-100.627,52.31-27.353,27.952-43.525,65.487-59.3,101.625-4.393,10.182-8.985,20.565-13.577,30.747-17.57,37.336-39.732,71.078-64.29,97.433-27.952,29.749-57.9,49.515-89.247,58.9-1.4.4-2.8.8-4.392,1.2-20.764,5.99-44.324,12.778-56.7,37.735-8.386,16.971-6.988,34.541-5.391,51.511.8,9.783,1.6,19.966.6,29.749-1.6,13.377-7.787,27.153-17.37,38.933a77.9,77.9,0,0,1-35.14,25.157c-10.582,3.594-21.363,4.592-31.945,5.79-9.384,1-17.969,1.8-26.155,4.393-17.37,5.391-28.551,16.771-39.532,41.129-8.985,19.566-3.195,39.133,2.6,58.3,5.59,18.768,11.181,37.935,2.4,56.5-10.183,21.363-36.338,30.747-57.5,32.344-10.182.8-19.766.8-28.95.8-10.981,0-21.563,0-31.346,1.4C42.739,728.149,21.975,736.135,9,761.292-1.585,781.857-2.983,806.814,5.6,824.783c.8,20.565,9.584,42.926,23.759,61.1,3.394,4.392,6.988,8.785,10.382,12.978,18.967,23.16,38.334,47.319,42.327,79.663,4.592,36.338-13.577,84.854-50.713,100.028l.2.4c37.336-15.374,55.5-64.09,51.112-100.627-3.993-32.544-23.56-56.7-42.527-79.863-3.394-4.193-6.988-8.785-10.382-12.978C15.586,867.31,7,844.948,6,824.583H6C-2.384,806.614-.986,781.857,9.4,761.492c12.978-25.157,33.542-32.943,48.517-35.14,9.783-1.4,20.365-1.4,31.346-1.4,9.184,0,18.768,0,28.95-.8,21.164-1.6,47.518-10.981,57.7-32.744,8.985-18.768,3.195-38.134-2.4-56.9-5.59-18.967-11.38-38.534-2.6-57.9,10.981-23.959,22.162-35.539,39.332-40.73,8.186-2.6,16.771-3.394,26.155-4.393,10.582-1,21.363-2.2,31.945-5.79,13.177-4.393,25.756-13.377,35.339-25.356,9.584-11.78,15.773-25.756,17.37-39.332,1.2-9.783.4-19.966-.6-29.749-1.4-16.971-2.8-34.341,5.391-51.312,12.179-24.757,35.739-31.546,56.3-37.536,1.4-.4,2.995-.8,4.392-1.2,31.346-9.184,61.494-29.15,89.446-58.9,24.558-26.355,46.919-60.1,64.489-97.433,4.592-9.983,9.184-20.565,13.577-30.747C569.633,118,586.005,80.462,613.159,52.51,639.314,25.756,674.054,7.587,713.387.4Z" fill="#878787"/>
    </g>
    <g id="Group_829" data-name="Group 829" transform="translate(87.551 47.718)">
      <path id="Path_755" data-name="Path 755" d="M696.007,0c-38.534,7.587-72.475,26.155-98.032,53.708s-40.53,63.691-54.906,98.631c-4.392,10.582-8.785,21.363-13.377,31.546-16.172,36.138-37.535,68.882-61.494,94.637-26.754,28.751-55.7,48.117-86.052,57.7-1,.4-2,.6-2.995,1-19.367,5.99-43.326,13.377-55.5,38.534-8.186,16.771-7.188,33.942-6.189,50.713.6,9.783,1.2,19.766-.2,29.35-1.8,12.978-8.186,26.554-17.769,37.935-9.584,11.58-22.162,20.365-35.14,24.558-10.183,3.394-20.565,4.592-30.548,5.79-9.783,1.2-18.967,2.2-27.353,5.191-17.969,6.389-26.355,18.967-37.136,42.926-8.585,19.167-3.195,38.534,2,57.1,5.391,19.167,10.582,37.336,1.6,55.5-3.195,6.589-16.971,28.351-57.3,31.945-9.184.8-17.57,1.2-25.756,1.4-11.979.4-23.16,1-33.542,2.8-14.375,2.8-33.942,11.181-46.72,36.537A89.012,89.012,0,0,0,.2,791.241C-.6,802.022,1,812.2,4.4,820.391c-1.4,21.363,5.99,45.721,19.367,64.888,3.793,5.391,7.787,10.781,11.78,15.973,17.17,22.961,34.94,46.919,37.935,78.265,1.8,18.768-2.2,39.732-10.981,57.9-9.584,19.566-24.158,34.141-41.129,41.129l.2.4c16.971-6.988,31.546-21.563,41.329-41.329,8.985-18.169,12.978-39.332,10.981-58.1-3.195-31.546-20.964-55.3-38.134-78.465-3.993-5.191-7.986-10.781-11.78-15.973C10.585,865.912,3.4,841.754,4.795,820.39h0C-2.593,803.02-.6,778.462,9.786,757.7c12.778-25.157,32.344-33.542,46.52-36.338,10.182-2,21.563-2.4,33.542-2.8,8.186-.4,16.771-.6,25.756-1.4,10.183-1,44.723-5.99,57.7-32.145,8.985-18.368,3.594-37.336-1.6-55.7-5.191-18.568-10.582-37.735-2-56.7,10.781-23.759,19.167-36.338,36.937-42.727,8.386-2.995,17.57-3.993,27.153-5.191,9.983-1.2,20.365-2.4,30.548-5.79,12.978-4.392,25.556-13.177,35.339-24.757,9.584-11.58,15.973-25.157,17.769-38.134,1.4-9.583.8-19.766.2-29.549-1-16.571-2-33.742,5.99-50.314,12.179-24.957,36.138-32.344,55.3-38.334,1-.4,2-.6,2.995-1,30.348-9.384,59.5-28.95,86.252-57.7,23.959-25.955,45.322-58.7,61.694-94.837,4.592-10.382,9.184-21.164,13.377-31.745,14.375-34.94,29.15-71.078,54.706-98.431S657.274,8.186,695.807.6Z" fill="#878787"/>
    </g>
    <g id="Group_830" data-name="Group 830" transform="translate(99.674 54.706)">
      <path id="Path_756" data-name="Path 756" d="M678.494,0a174.218,174.218,0,0,0-95.636,55.105C558.9,82.059,545.323,117,532.345,150.541c-4.193,10.781-8.585,21.962-13.177,32.544-32.145,74.472-85.054,129.977-141.557,148.545l-1.8.6c-18.768,6.189-42.128,13.776-54.506,39.332-7.986,16.572-7.387,33.343-6.788,49.715.4,9.983.8,19.566-.8,29.15-4.392,26.554-26.754,52.111-53.109,60.9-9.584,3.195-19.566,4.592-29.15,5.79-10.183,1.4-19.966,2.6-28.351,6.189-18.169,7.387-24.358,21.363-34.74,44.723-8.386,18.768-3.394,37.735,1.6,55.9,4.991,18.967,9.783,36.737.8,54.506-4.193,8.186-17.969,27.353-57.3,31.546-7.587.8-14.575,1.4-21.563,1.8-13.976,1-25.955,2-36.937,4.592C35.4,721.161,20.425,733.739,10.242,754.1-.34,775.268-2.935,799.227,3.454,816.6c-3.594,21.962,2.2,48.317,14.974,68.682,3.993,6.189,8.186,12.578,12.379,18.568,15.773,22.961,31.945,46.72,34.141,77.068,2.8,36.338-16.572,82.858-53.308,97.832l.2.4c37.136-14.974,56.3-61.694,53.708-98.231-2.2-30.548-18.568-54.307-34.341-77.267-4.193-5.99-8.386-12.379-12.379-18.568C6.049,864.714.459,838.559,4.053,816.8h0c-6.389-17.171-3.793-40.93,6.788-62.093,9.983-20.165,24.957-32.744,44.324-37.536,10.981-2.6,22.961-3.594,36.937-4.592,6.788-.6,13.976-1,21.563-1.8a100.064,100.064,0,0,0,32.943-8.984c11.58-5.59,19.966-13.377,24.757-22.761,9.184-17.769,4.392-35.739-.8-54.706-4.792-18.169-9.783-36.937-1.6-55.5,10.382-23.16,16.572-37.336,34.541-44.523,8.386-3.394,18.169-4.792,28.351-6.189,9.584-1.2,19.367-2.6,29.15-5.79,26.554-8.785,49.116-34.541,53.308-61.295,1.6-9.583,1.2-18.967.8-29.15-.6-16.172-1.2-32.943,6.788-49.515,12.179-25.357,35.539-32.943,54.107-39.133l1.8-.6c56.5-18.568,109.612-74.272,141.757-148.744,4.592-10.582,8.984-21.763,13.177-32.544C545.722,117.8,559.3,82.858,583.258,55.9A173.536,173.536,0,0,1,678.494,1Z" fill="#878787"/>
    </g>
    <g id="Group_831" data-name="Group 831" transform="translate(111.895 61.494)">
      <path id="Path_757" data-name="Path 757" d="M660.882,0a169.009,169.009,0,0,0-52.11,20.964A165.358,165.358,0,0,0,567.842,56.3c-22.362,26.554-34.541,60.1-46.32,92.441-3.993,11.181-8.186,22.561-12.778,33.343-13.776,33.542-33.143,64.489-55.9,89.446-24.159,26.554-51.711,45.721-79.663,55.5l-.6.2c-18.169,6.389-40.93,14.375-53.308,40.131-7.787,16.372-7.587,32.744-7.387,48.716.2,9.983.2,19.367-1.4,28.751-4.792,25.756-27.353,50.713-53.508,59.1-9.184,2.995-18.568,4.392-27.752,5.79-10.781,1.6-20.764,3.195-29.35,6.988-15.374,7.188-20.365,18.768-28.751,38.134-1.2,2.8-2.4,5.59-3.793,8.585-8.186,18.568-3.394,36.937,1,54.706,4.592,18.568,9.184,36.138,0,53.309-12.379,23.36-44.124,29.549-57.3,30.947-5.191.6-10.382,1.2-15.174,1.6-16.172,1.8-30.348,3.195-42.327,6.788C35.157,716.169,20.981,729.147,11,749.512.616,770.875-2.578,794.635,2.613,811.406-3.177,834.167.816,861.719,13,883.682c3.993,6.988,8.386,13.976,12.578,20.764,14.375,22.961,29.35,46.72,30.747,76.469,1,18.568-3.793,39.133-12.978,56.7-7.188,13.577-20.165,31.346-41.728,40.131l.2.4c21.763-8.785,34.74-26.754,41.928-40.331,9.184-17.57,13.976-38.334,13.177-56.9-1.4-29.948-16.372-53.708-30.947-76.668-4.193-6.788-8.785-13.776-12.578-20.764C1.215,861.719-2.778,833.967,3.012,811.406h0c-5.191-16.572-2-40.331,8.386-61.694,9.783-20.165,24.158-33.143,42.327-38.534,11.979-3.594,25.955-4.991,42.327-6.788,4.991-.6,9.983-1,15.174-1.6,13.177-1.6,45.122-7.787,57.5-31.346,9.184-17.37,4.792-35.14.2-53.708-4.392-17.769-8.985-35.938-1-54.307,1.4-2.995,2.6-5.79,3.793-8.585,8.186-19.167,13.177-30.947,28.351-37.935,8.585-3.993,18.568-5.391,29.35-6.988,9.184-1.4,18.568-2.8,27.752-5.79,26.155-8.585,48.916-33.542,53.708-59.5,1.8-9.384,1.6-18.768,1.4-28.95-.2-15.773-.4-32.145,7.387-48.517,12.379-25.756,34.94-33.742,53.109-39.931l.6-.2c28.152-9.783,55.7-28.95,79.863-55.5,22.761-24.957,42.128-55.9,56.1-89.446,4.392-10.781,8.585-22.362,12.778-33.343C533.9,116.4,546.079,82.858,568.441,56.3A168.319,168.319,0,0,1,661.281,0Z" fill="#878787"/>
    </g>
    <g id="Group_832" data-name="Group 832" transform="translate(116.305 68.283)">
      <path id="Path_758" data-name="Path 758" d="M650.882,0A161.759,161.759,0,0,0,599.57,21.763,164.186,164.186,0,0,0,560.237,57.7c-20.764,25.955-31.745,58.3-42.327,89.646-3.794,11.38-7.787,23.16-12.179,34.141-12.778,32.344-31.146,62.293-53.109,86.651-22.961,25.356-49.315,44.124-76.469,54.107-16.372,6.189-38.933,14.375-51.512,40.93-7.587,16.172-7.787,32.145-7.986,47.518,0,9.983-.2,19.367-2.2,28.551-2.6,11.979-9.384,24.358-18.967,34.74a84.876,84.876,0,0,1-34.74,22.761c-8.785,2.8-17.57,4.193-26.355,5.59-11.181,1.8-21.763,3.594-30.348,7.986-13.577,6.988-17.769,17.57-23.959,33.742-1.8,4.393-3.594,9.384-5.99,14.775-7.787,18.169-3.594,36.138.4,53.508,4.392,18.169,8.386,35.539-1,52.31-11.979,21.563-40.93,28.351-57.1,30.547l-5.391.6c-20.165,2.6-37.536,4.991-51.312,9.783-17.17,6.189-30.548,19.167-40.53,39.931C8.585,767.681,4.792,790.642,9.184,807.013c-6.189,17.77-4.392,41.928,5.99,76.069h0C50.713,930.4,55.3,962.147,55.9,982.113c.8,35.14-18.568,80.661-55.9,95.636l.2.4c37.735-15.174,57.1-60.7,56.3-96.035-.4-17.969-4.592-35.539-12.978-53.907-6.589-14.375-15.174-28.551-27.353-44.923-10.382-33.942-12.179-58.1-5.99-75.67h0c-4.193-16.372-.6-39.133,9.983-61.095,9.983-20.565,22.961-33.742,40.131-39.732,13.776-4.792,31.146-7.188,51.312-9.783l5.391-.6c16.372-2.2,45.522-8.985,57.5-30.747,9.384-16.971,5.191-34.341,1-52.709-3.993-17.37-8.386-35.14-.6-53.109q3.594-8.086,5.99-14.974c6.189-15.973,10.382-26.554,23.759-33.343,8.585-4.392,19.167-6.189,30.348-7.986,8.585-1.4,17.57-2.8,26.355-5.79a84.231,84.231,0,0,0,34.94-22.761c9.584-10.382,16.372-22.961,18.967-34.94,2-9.184,2-18.768,2.2-28.551.2-15.374.4-31.346,7.986-47.518,12.379-26.155,34.94-34.541,51.312-40.73,27.153-9.983,53.508-28.751,76.469-54.307,22.162-24.558,40.53-54.506,53.308-86.851,4.392-10.981,8.386-22.761,12.179-34.141C529.291,116.8,540.272,84.455,560.836,58.5A162.982,162.982,0,0,1,651.281,1Z" fill="#878787"/>
    </g>
    <g id="Group_833" data-name="Group 833" transform="translate(118.102 75.071)">
      <path id="Path_759" data-name="Path 759" d="M643.694,0c-34.541,8.386-65.887,29.35-88.049,59.1-19.167,25.556-28.95,56.7-38.334,86.851-3.594,11.58-7.387,23.56-11.58,34.74-23.759,63.89-71.078,116.4-123.588,137.164-13.577,5.391-36.537,14.375-49.116,41.329-7.387,15.773-7.986,31.346-8.585,46.52-.4,9.983-.6,19.367-2.8,28.351-5.99,24.558-28.152,47.518-54.107,55.7a186.73,186.73,0,0,1-24.957,5.59c-11.58,2-22.761,3.993-31.546,8.985-12.179,6.988-15.573,17.171-20.365,31.147-2,5.59-4.193,12.179-7.188,19.367-7.587,17.769-3.793,35.339,0,52.11,3.993,17.969,7.587,34.94-1.8,51.312-11.181,19.566-37.336,27.153-57.1,30.148-20.964,2.995-40.93,6.389-55.7,12.578-16.172,6.788-28.351,19.766-38.334,41.129-10.582,22.761-14.974,44.923-11.78,60.9-8.186,18.368-7.587,43.725,1.4,79.663h0C37.535,907.84,57.3,941.982,57.3,982.712c0,18.368-5.59,38.534-14.974,55.5C31.745,1056.984,17.171,1070.561,0,1077.349l.2.4c17.17-6.788,31.745-20.365,42.527-39.332a119.039,119.039,0,0,0,15.174-55.7c0-40.93-19.766-75.071-37.136-100.228-9.184-35.938-9.584-61.295-1.4-79.464h0c-3.195-15.773,1-37.935,11.58-60.7,9.983-21.164,21.962-34.141,38.134-40.93,14.775-6.189,34.74-9.384,55.7-12.578,19.966-2.995,46.121-10.582,57.5-30.348,9.384-16.572,5.79-33.542,1.8-51.711-3.594-16.771-7.587-34.341,0-51.911,2.995-7.188,5.191-13.776,7.188-19.367,4.792-14.375,8.186-23.959,20.165-30.747,8.585-4.991,19.766-6.988,31.346-8.985a186.738,186.738,0,0,0,24.957-5.59c25.955-8.386,48.317-31.346,54.307-56.1,2.2-9.184,2.6-18.568,2.995-28.551.6-14.974,1-30.547,8.386-46.32,12.578-26.754,35.339-35.739,48.916-41.129,52.51-20.764,100.028-73.474,123.787-137.364,4.193-11.181,7.986-23.16,11.58-34.74,9.384-30.148,19.167-61.095,38.334-86.651C578.207,29.549,609.553,8.785,643.894.4Z" transform="translate(0 0)" fill="#878787"/>
    </g>
    <g id="Group_834" data-name="Group 834" transform="translate(120.697 81.859)">
      <path id="Path_760" data-name="Path 760" d="M635.508,0c-33.942,8.585-64.29,30.148-85.653,60.5-17.77,25.157-26.155,55.105-34.541,84.056-3.394,11.78-6.788,23.959-10.781,35.339-21.164,60.5-66.286,111.608-117.4,133.371-17.57,7.387-35.539,17.769-46.72,41.728-7.188,15.573-8.186,30.747-8.985,45.322-.6,9.983-1.2,19.167-3.594,28.351-6.389,23.759-28.751,45.921-54.307,54.107a200.275,200.275,0,0,1-23.56,5.391c-12.179,2.4-23.759,4.592-32.544,9.983-11.181,7.188-13.976,16.572-17.57,29.549a177.918,177.918,0,0,1-7.587,22.761c-7.387,17.37-3.794,34.541-.6,50.913,3.594,17.57,6.988,34.341-2.6,50.314-8.985,14.974-28.152,24.957-57.1,29.549-26.155,4.193-42.727,8.585-54.906,14.575-14.974,7.387-26.155,20.365-36.138,42.327-10.781,23.36-15.573,45.322-13.377,60.5-9.783,18.568-10.781,45.921-2.995,83.457h0C40.93,908.04,59.7,942.98,58.5,983.51a118.67,118.67,0,0,1-15.973,54.906C31.745,1056.784,16.971,1070.161,0,1076.95l.2.4c17.171-6.788,31.945-20.165,42.727-38.733A119.019,119.019,0,0,0,59.1,983.51c1-40.73-17.57-75.67-33.942-101.825C17.37,844.15,18.368,817,28.152,798.428h0c-2.2-14.974,2.6-36.937,13.377-60.3,9.983-21.763,21.164-34.74,35.938-41.928,12.179-5.99,28.551-10.382,54.706-14.575,29.15-4.592,48.317-14.575,57.3-29.749,9.584-16.172,6.189-32.943,2.6-50.713-3.394-16.372-6.788-33.343.6-50.713a177.908,177.908,0,0,0,7.587-22.761c3.594-12.978,6.189-22.162,17.37-29.35,8.785-5.59,20.165-7.787,32.344-9.983a200.277,200.277,0,0,0,23.56-5.391c25.756-8.186,48.117-30.548,54.706-54.307,2.4-9.184,2.995-18.368,3.594-28.351.8-14.575,1.8-29.749,8.985-45.122,11.181-23.959,28.95-34.141,46.52-41.529,51.312-21.763,96.434-72.875,117.8-133.571,3.993-11.381,7.387-23.56,10.781-35.339,8.186-28.95,16.771-58.9,34.341-84.056C571.618,30.348,601.966,8.984,635.708.4Z" fill="#878787"/>
    </g>
    <g id="Group_835" data-name="Group 835" transform="translate(123.093 88.648)">
      <path id="Path_761" data-name="Path 761" d="M627.721,0c-33.143,8.785-62.692,30.747-83.257,61.894-16.172,24.558-23.56,53.508-30.747,81.46-3.194,12.578-6.189,24.358-9.983,35.739-18.568,57.1-61.295,106.617-111.409,129.577C376.753,315.658,359.383,326.24,348,351c-6.988,15.174-8.186,29.949-9.584,44.124-.8,9.983-1.8,19.367-4.392,28.351-3.394,10.981-10.582,22.362-20.165,31.546a89.479,89.479,0,0,1-34.541,20.764c-7.387,2.2-14.775,3.793-22.162,5.391-12.778,2.6-24.757,4.991-33.542,11.181-10.382,7.188-12.379,16.172-15.174,28.751a145.964,145.964,0,0,1-7.587,25.556c-6.988,16.971-3.993,33.542-1,49.715,3.195,17.37,6.189,33.742-3.394,49.315-8.985,14.575-27.553,24.158-56.9,29.15-24.158,4.193-41.728,9.584-53.907,16.571-13.776,7.986-23.959,20.764-34.141,43.326C40.331,759.3,35.14,780.06,36.537,794.635c-11.58,18.967-14.176,47.518-7.387,87.25h0C58.7,932.8,61.1,963.744,59.9,984.908c-2.4,45.921-31.945,81.26-59.9,92.242l.2.4c17.17-6.788,31.945-19.966,43.126-38.334,9.983-16.572,16.172-35.938,17.17-54.506,2.2-40.331-15.374-76.469-30.947-103.223-6.589-39.532-4.193-68.083,7.387-86.851h0c-1.4-14.575,3.793-35.14,14.974-59.7,10.183-22.362,20.365-35.339,33.942-43.126,12.179-6.988,29.749-12.379,53.907-16.571,29.549-5.191,48.317-14.775,57.3-29.35,9.783-15.773,6.788-32.145,3.594-49.715-2.995-15.973-5.99-32.544,1-49.515A145.964,145.964,0,0,0,209.24,521.1c2.8-12.379,4.792-21.164,14.974-28.351,8.785-5.99,20.764-8.585,33.343-10.981a178.949,178.949,0,0,0,22.162-5.391,89.718,89.718,0,0,0,34.74-20.964c9.783-9.384,16.971-20.764,20.365-31.745,2.8-8.985,3.594-18.368,4.392-28.351,1.2-14.176,2.6-28.751,9.584-43.925,11.181-24.558,28.551-34.94,44.124-42.128,50.314-22.761,93.04-72.476,111.808-129.777,3.794-11.58,6.788-23.36,9.983-35.739,7.188-27.952,14.575-56.7,30.747-81.46C565.828,31.346,595.177,9.384,628.32.6Z" fill="#878787"/>
    </g>
    <g id="Group_836" data-name="Group 836" transform="translate(125.489 95.636)">
      <path id="Path_762" data-name="Path 762" d="M619.935,0c-32.544,9.184-61.295,31.546-80.661,63.291C524.5,87.45,518.31,115.4,512.12,142.355c-2.8,12.578-5.59,24.558-8.984,36.138a208.066,208.066,0,0,1-42.128,75.87c-18.169,21.164-40.131,38.334-63.491,49.715-13.377,6.589-30.348,17.37-41.928,42.727-6.788,14.775-8.386,28.95-9.983,42.727-1.2,9.983-2.2,19.367-5.191,28.351-7.587,22.362-29.749,42.926-54.906,50.713-6.788,2.2-13.776,3.594-20.764,5.191-13.177,2.8-25.756,5.59-34.541,12.179-9.783,7.587-11.38,16.771-13.177,28.351-1.4,7.986-2.8,16.971-7.188,27.752-6.788,16.571-4.193,32.744-1.6,48.317,2.8,16.971,5.391,33.143-4.392,48.317-11.58,18.169-36.537,24.957-56.9,28.751-23.16,4.392-40.93,10.582-53.109,18.768-12.379,8.186-21.563,21.164-31.945,44.523-11.58,26.155-16.971,45.721-16.572,59.3-7.188,10.382-11.78,24.158-13.577,41.129-1.4,14.176-.8,30.947,1.6,49.715h0C48.716,910.236,64.09,945.575,61.1,985.307a119.329,119.329,0,0,1-17.969,53.508C31.945,1056.784,16.971,1069.762,0,1076.351l.2.4c16.971-6.788,32.145-19.766,43.326-37.735a122.914,122.914,0,0,0,18.169-53.708c3.195-39.931-12.179-75.271-27.752-104.62-2.4-18.768-2.995-35.539-1.6-49.715,1.6-16.771,6.189-30.547,13.377-40.93h0c-.4-13.776,4.991-33.143,16.572-59.3,10.382-23.36,19.566-36.138,31.745-44.324,11.979-7.986,29.949-14.375,52.909-18.568,20.365-3.793,45.522-10.582,57.1-28.95,9.783-15.374,7.188-31.546,4.392-48.716-2.6-15.573-5.191-31.745,1.6-48.117,4.392-10.781,5.79-19.766,7.188-27.752,1.8-11.58,3.394-20.565,12.978-27.952,8.785-6.589,21.164-9.384,34.341-12.179a210.323,210.323,0,0,0,20.764-5.191c25.356-7.986,47.718-28.351,55.3-50.912,2.995-8.985,4.193-18.368,5.391-28.551,1.6-13.577,3.195-27.752,9.983-42.527,11.38-25.157,28.351-35.938,41.728-42.527,23.36-11.38,45.322-28.751,63.491-49.914a208.877,208.877,0,0,0,42.128-76.069c3.594-11.58,6.189-23.56,8.985-36.138C518.31,115.4,524.5,87.65,539.273,63.491,558.64,31.945,587.191,9.584,619.735.4Z" fill="#878787"/>
    </g>
    <g id="Group_837" data-name="Group 837" transform="translate(127.286 102.424)">
      <path id="Path_763" data-name="Path 763" d="M612.548,0c-32.145,9.384-59.9,32.344-78.266,64.689-13.377,23.759-18.568,50.513-23.56,76.469-2.4,12.778-4.792,24.758-7.986,36.537-7.188,26.355-20.565,50.913-39.332,73.074a209.625,209.625,0,0,1-60.1,48.716,90.01,90.01,0,0,0-20.165,14.575,94.769,94.769,0,0,0-19.367,28.551c-6.389,14.375-8.386,27.952-10.382,41.129-1.4,10.182-2.8,19.566-6.189,28.551-7.986,21.563-30.348,41.329-55.3,48.916-6.389,2-12.778,3.394-19.167,4.792-13.776,3.195-26.954,6.189-35.739,13.377-9.384,7.787-10.382,16.771-11.58,28.351-.8,8.585-1.8,18.169-6.589,29.549-6.589,16.172-4.193,31.945-2,47.119,2.4,16.771,4.792,32.544-5.191,47.518-11.38,17.171-35.14,23.959-56.9,28.152-22.362,4.592-40.53,11.78-52.31,20.764-10.981,8.386-18.967,20.764-29.949,45.522-9.184,21.164-17.769,42.926-18.169,58.9-15.174,19.367-20.565,51.312-16.372,94.637h0c14.375,30.148,28.551,66.486,24.558,105.818C59.1,1018.65,38.134,1060.777,0,1075.752l.2.4c38.134-14.974,59.3-57.3,62.692-90.445,4.193-39.532-10.183-75.87-24.558-106.018-4.193-43.126,1.2-74.871,16.372-94.238h0c.4-15.773,8.985-37.536,18.169-58.7,10.781-24.757,18.967-37.136,29.749-45.522,11.78-8.985,29.749-16.172,52.11-20.565,21.763-4.393,45.721-11.181,57.1-28.351,9.983-14.974,7.587-30.947,5.191-47.718-2.2-15.174-4.392-30.747,2-46.919,4.592-11.58,5.59-21.164,6.589-29.749,1.2-11.38,2.2-20.365,11.38-27.952,8.785-7.188,21.763-10.182,35.539-13.377q9.584-2.1,19.167-4.792c25.157-7.787,47.518-27.553,55.5-49.315,3.394-8.984,4.792-18.568,6.189-28.751,2-13.177,3.793-26.754,10.382-41.129,11.78-25.955,27.952-36.937,39.332-42.926a207.841,207.841,0,0,0,60.3-48.916c18.768-22.162,32.145-46.919,39.332-73.274,3.195-11.78,5.59-23.759,7.986-36.537,4.991-25.955,9.983-52.709,23.56-76.469C552.451,32.345,580.2,9.384,612.148,0Z" fill="#878787"/>
    </g>
    <g id="Group_838" data-name="Group 838" transform="translate(130.081 109.212)">
      <path id="Path_764" data-name="Path 764" d="M604.362,0c-42.727,12.978-65.687,46.919-75.67,65.887-12.179,23.36-16.172,49.115-20.165,74.272-2,12.778-3.793,24.957-6.788,36.737-6.189,25.157-18.568,48.716-36.537,70.279a218.8,218.8,0,0,1-56.9,47.718c-15.973,9.384-28.152,23.56-37.136,43.725-6.189,13.976-8.386,26.954-10.582,39.532-1.8,10.183-3.394,19.966-7.188,28.95-8.585,20.764-30.947,39.732-55.7,47.319-5.79,1.8-11.78,3.194-17.57,4.592-14.575,3.394-28.152,6.788-36.937,14.575-8.985,7.986-9.384,17.17-9.983,28.551-.4,8.985-.8,19.167-5.79,31.346-6.189,15.773-4.392,30.947-2.6,45.721,2,16.571,3.993,32.145-5.99,46.52-11.78,16.771-35.339,23.16-56.7,27.752-21.763,4.792-40.131,12.778-51.312,22.761-10.582,9.384-17.57,23.16-27.752,46.72-9.983,23.36-18.568,43.525-19.966,58.3-16.971,19.766-23.959,52.909-20.764,98.231h0c23.959,55.5,24.158,85.453,21.363,107.415a123.491,123.491,0,0,1-19.966,52.31c-11.78,17.37-26.754,29.948-43.725,36.537l.2.4c16.971-6.589,32.344-19.367,43.925-36.737A125.648,125.648,0,0,0,64.29,986.9c2.4-17.969,1.2-36.537-3.793-56.7-4.592-19.367-11.979-37.336-17.769-50.912-2.995-45.322,3.993-78.266,20.764-98.032h0c1.4-14.775,9.983-34.94,19.766-58.3,10.183-23.56,17.17-37.336,27.752-46.72,11.181-9.983,29.35-17.969,51.112-22.761,21.363-4.592,45.322-10.981,57.1-27.952,10.183-14.575,8.186-30.148,6.189-46.919-1.8-14.575-3.594-29.749,2.6-45.522,4.792-12.179,5.391-22.362,5.79-31.346.6-11.181,1-20.165,9.783-28.152,8.585-7.787,22.362-11.181,36.737-14.575,5.79-1.4,11.78-2.8,17.57-4.592,24.957-7.587,47.319-26.554,55.9-47.518,3.793-8.984,5.391-18.768,7.188-29.15,2.2-12.578,4.392-25.556,10.582-39.532,8.785-19.966,20.964-34.141,36.937-43.525a215.572,215.572,0,0,0,56.9-47.718c18.169-21.563,30.548-45.322,36.737-70.479,2.995-11.78,4.792-23.759,6.788-36.737,3.993-24.957,7.986-50.913,19.966-74.073C538.874,46.72,561.835,12.778,604.362,0Z" fill="#878787"/>
    </g>
    <g id="Group_839" data-name="Group 839" transform="translate(132.078 116.001)">
      <path id="Path_765" data-name="Path 765" d="M596.775,0c-42.128,13.377-63.89,47.918-73.274,67.284-10.981,22.961-13.776,47.918-16.771,71.877-1.6,12.778-2.995,24.957-5.59,36.737A181.836,181.836,0,0,1,468.4,246.576c-15.973,20.764-34.74,35.938-54.706,43.525h0c-1.4,1.2-2.8,2.6-4.392,3.993-8.985,7.986-21.164,18.967-30.348,40.131-5.79,13.377-8.386,25.756-10.781,37.735-2.2,10.582-4.193,20.365-8.186,29.549-9.184,20.165-31.146,38.134-55.9,45.522-5.191,1.6-10.781,2.995-15.973,4.193-15.174,3.793-29.549,7.387-38.334,15.973-8.585,8.386-8.585,17.969-8.386,28.751,0,9.384.2,19.966-4.792,32.744C230.6,544.065,232,558.84,233.6,573.016c1.6,16.172,3.195,31.546-6.988,45.721-12.379,17.171-37.935,22.961-56.7,27.353-21.763,4.991-39.732,13.776-50.513,24.757-9.783,9.983-15.374,23.16-25.356,47.119l-.2.8c-2,4.792-3.993,9.184-5.79,13.776-7.387,17.37-13.976,32.344-15.773,44.124C53.508,796.831,45.122,831.172,46.919,878.69h0C59.9,912.432,71.278,948.77,65.088,987.5a125.464,125.464,0,0,1-20.964,51.711C32.145,1056.185,16.971,1068.764,0,1075.353l.2.4c16.971-6.589,32.344-19.167,44.324-36.138A128.281,128.281,0,0,0,65.687,987.7c5.99-38.733-5.191-75.271-18.169-109.013-2-47.518,6.589-81.66,25.157-101.825h0c1.8-11.78,8.186-26.754,15.773-44.124,1.8-4.392,3.793-8.984,5.79-13.776l.2-.8c9.983-23.959,15.573-37.136,25.356-47.119,10.781-10.981,28.551-19.766,50.114-24.757,18.768-4.393,44.524-10.183,56.9-27.553,10.182-14.176,8.585-29.549,6.988-45.921-1.4-14.176-2.995-28.95,2.995-44.124,4.991-12.778,4.991-23.56,4.792-32.944,0-11.38-.2-20.165,8.186-28.551,8.585-8.386,22.961-11.979,38.134-15.773,5.191-1.4,10.781-2.6,15.973-4.193,24.957-7.587,47.119-25.556,56.3-45.921,4.193-9.184,6.189-18.967,8.386-29.549,2.4-11.979,4.991-24.358,10.781-37.535,9.384-21.164,21.363-31.945,30.348-39.931a40.566,40.566,0,0,0,4.193-3.993c19.966-7.587,38.933-22.761,54.906-43.725A179.846,179.846,0,0,0,501.538,175.7c2.6-11.78,3.993-23.959,5.59-36.737,2.8-24.159,5.79-48.916,16.771-71.877C533.084,47.718,554.847,13.177,596.775,0Z" fill="#878787"/>
    </g>
    <g id="Group_840" data-name="Group 840" transform="translate(134.274 122.789)">
      <path id="Path_766" data-name="Path 766" d="M589.188,0c-41.728,13.776-62.293,48.916-70.679,68.682-9.583,22.362-11.58,46.52-13.577,69.88-1,12.778-2,24.957-4.193,36.737-9.384,49.315-42.727,94.637-81.46,110.41h0c-1.4,1.4-2.8,2.995-4.392,4.592-7.986,8.186-18.967,19.367-27.952,39.931-5.391,12.578-8.186,24.358-10.981,35.739-2.6,10.781-4.991,21.164-9.583,30.348-9.584,19.367-31.745,36.537-56.3,43.924-4.592,1.4-9.584,2.6-14.176,3.793-15.973,3.993-30.947,7.986-39.732,17.171-8.186,8.785-7.587,18.368-6.988,29.35.6,9.783,1.2,20.964-3.793,34.141-5.79,14.974-4.592,29.15-3.594,42.926,1.2,15.973,2.4,31.147-7.787,44.723-11.979,15.973-35.938,21.763-55.105,26.554l-1.6.4c-21.363,5.191-39.532,14.974-49.515,26.954-7.387,8.585-11.78,19.566-18.368,35.938-1.6,3.793-3.394,8.186-5.191,12.978-3.394,7.986-6.589,15.374-9.783,22.561-5.99,13.577-11.38,25.157-13.377,34.74C56.5,797.031,44.523,839.358,51.312,878.291c1.8,10.182,4.392,20.165,6.988,30.547C64.889,934.2,71.477,960.55,66.486,988.5,60.5,1021.246,37.735,1060.578,0,1075.153l.2.4c38.134-14.575,61.1-54.107,67.085-86.851,5.191-27.952-1.6-54.307-8.186-79.863-2.8-10.582-5.191-20.565-6.988-30.548C45.322,839.558,57.3,797.23,81.66,772.872h0c2-9.584,7.387-21.164,13.377-34.74,3.195-7.188,6.589-14.575,9.783-22.561,2-4.592,3.793-9.184,5.191-12.978,6.589-16.372,10.981-27.353,18.169-35.938,9.983-11.78,27.952-21.563,49.315-26.754l1.6-.4c19.167-4.592,43.126-10.582,55.3-26.554,10.382-13.776,9.184-28.95,7.986-45.123-1-13.776-2.2-27.952,3.394-42.727,5.191-13.377,4.392-24.558,3.793-34.341-.6-10.981-1.2-20.365,6.788-28.95,8.585-9.184,23.56-12.978,39.532-16.971,4.592-1.2,9.583-2.4,14.176-3.794,24.757-7.387,46.919-24.558,56.5-44.124,4.592-9.184,6.988-19.566,9.583-30.348,2.6-11.38,5.391-22.961,10.781-35.539,8.985-20.365,19.766-31.546,27.752-39.732,1.6-1.6,2.995-3.194,4.392-4.592,38.734-15.773,72.276-61.295,81.66-110.61,2.2-11.78,3.195-23.959,4.193-36.737,1.8-23.16,3.793-47.319,13.377-69.68C526.7,49.914,547.26,14.974,588.788,1.2Z" fill="#878787"/>
    </g>
    <g id="Group_841" data-name="Group 841" transform="translate(137.069 129.577)">
      <path id="Path_767" data-name="Path 767" d="M581,0c-41.329,14.176-60.5,49.914-68.283,70.079-13.577,35.14-13.377,73.474-13.177,104.421-8.186,25.556-18.368,47.319-29.949,64.888-13.577,20.565-28.95,34.74-45.522,41.728h0c-1.4,1.8-2.995,3.594-4.792,5.79-6.988,8.386-16.771,19.566-25.157,39.332-4.991,11.78-7.986,22.761-10.781,33.343-2.995,11.181-5.79,21.962-10.981,31.346-9.983,18.568-32.145,35.14-56.5,42.128-3.993,1.2-8.186,2.4-12.379,3.394-16.771,4.392-32.544,8.585-41.129,18.568-7.986,9.184-6.988,18.768-5.59,29.949,1.2,10.183,2.4,21.563-2.8,35.339-5.391,14.375-4.792,28.152-3.993,41.529.8,15.773,1.8,30.747-8.785,43.925-11.78,14.974-33.542,20.565-52.51,25.356-1.4.4-2.6.6-3.993,1-21.563,5.59-39.133,16.172-48.716,28.95-5.59,7.787-8.985,16.771-13.577,29.549-2.2,5.99-4.592,12.778-7.787,20.764-4.193,10.582-8.785,20.165-12.978,28.751-5.191,10.781-9.584,20.165-11.78,28.152C63.491,792.838,49.715,836.762,55.7,877.892c1.4,10.182,3.794,20.365,6.189,31.146,5.79,25.955,11.78,52.709,5.79,80.661a130.345,130.345,0,0,1-22.961,50.513c-12.379,16.372-27.752,28.551-44.723,35.14l.2.4c16.771-6.988,32.344-19.167,44.723-35.539A128.322,128.322,0,0,0,67.883,989.5c5.79-28.152,0-54.906-5.79-80.861-2.4-10.781-4.592-20.764-6.189-31.147-5.79-40.93,7.787-84.654,34.141-109.212h0c2.2-7.986,6.788-17.37,11.78-28.152,3.993-8.585,8.785-18.169,12.978-28.751,3.195-7.787,5.59-14.575,7.787-20.764,4.592-12.578,7.986-21.763,13.577-29.35,9.384-12.778,26.954-23.36,48.317-28.751,1.4-.4,2.6-.6,3.993-1,19.167-4.991,40.93-10.382,52.909-25.556,10.582-13.377,9.783-28.351,8.785-44.324-.8-13.177-1.4-26.954,3.993-41.329,5.191-13.776,3.993-25.356,2.8-35.539-1.2-10.981-2.4-20.565,5.59-29.549,8.585-9.783,24.358-13.976,40.93-18.369,3.993-1,8.186-2.2,12.379-3.394,24.757-7.387,46.72-23.56,56.9-42.327,5.191-9.384,7.986-20.165,10.981-31.346,2.8-10.582,5.79-21.563,10.781-33.343,8.386-19.566,17.969-30.947,25.157-39.133,1.8-2,3.394-3.993,4.792-5.59,16.771-7.188,31.945-21.164,45.721-41.928,11.58-17.57,21.563-39.332,29.949-64.889h0c-.2-30.747-.4-69.081,13.177-104.221C521.1,50.713,540.072,14.974,581.4.8Z" fill="#878787"/>
    </g>
    <g id="Group_842" data-name="Group 842" transform="translate(139.265 136.366)">
      <path id="Path_768" data-name="Path 768" d="M573.215,0a97.865,97.865,0,0,0-42.527,29.749,131.151,131.151,0,0,0-23.36,41.728c-11.181,33.143-10.382,67.284-8.585,102.224-7.387,24.358-16.571,45.322-27.153,62.293-12.379,19.766-26.754,33.343-42.128,40.53h0c-1.4,2.2-3.195,4.592-5.191,7.188-6.189,8.386-14.575,19.766-22.362,38.135a276.944,276.944,0,0,0-10.382,30.547c-3.594,11.78-6.788,23.16-12.578,32.744-10.582,17.769-32.344,33.343-56.9,40.53-3.394,1-6.788,2-10.183,2.8-17.57,4.792-34.141,9.184-42.926,19.966-7.787,9.584-6.189,19.367-4.392,30.747,1.6,10.382,3.594,22.362-1.6,36.537-5.191,13.976-4.792,27.153-4.392,39.931.4,15.573,1,30.348-9.584,43.326-11.38,13.976-32.145,19.367-50.314,24.358-2,.6-4.193,1-6.189,1.6-21.363,5.79-39.133,17.37-47.718,30.947-4.392,6.988-6.988,15.174-10.382,25.356-2.4,7.387-4.991,15.773-8.985,25.955a350.124,350.124,0,0,1-15.573,33.143c-4.592,8.785-8.386,16.372-10.781,23.16C71.078,788.046,55.5,833.568,60.3,876.694c1.2,10.382,3.195,20.565,5.191,31.546,4.991,26.355,10.182,53.708,3.594,81.66a132.864,132.864,0,0,1-23.959,49.914C32.544,1055.986,16.971,1067.965,0,1074.354l.2.4c16.971-6.589,32.744-18.568,45.322-34.74A129.923,129.923,0,0,0,69.481,990.1c6.589-28.152,1.4-55.5-3.594-81.859-2-10.781-3.993-21.164-5.191-31.346C55.7,833.768,71.278,788.446,99.229,764.087h0c2.4-6.788,6.189-14.375,10.781-23.16,4.991-9.783,10.781-20.764,15.573-33.343,3.993-10.182,6.788-18.568,8.985-25.955,3.195-10.182,5.79-18.368,10.183-25.356,8.585-13.577,26.355-24.957,47.518-30.747,2-.6,3.993-1,6.189-1.6,18.368-4.792,38.933-10.382,50.513-24.358,10.782-12.978,10.183-27.952,9.783-43.525-.4-12.778-.8-25.955,4.392-39.931,5.391-14.176,3.394-26.155,1.8-36.737-1.8-11.181-3.394-20.964,4.193-30.348,8.585-10.582,25.157-15.174,42.727-19.766,3.394-1,6.788-1.8,10.183-2.8,24.558-7.188,46.52-22.761,57.1-40.73,5.79-9.783,8.985-20.964,12.578-32.744a251.361,251.361,0,0,1,10.382-30.547c7.787-18.368,16.172-29.749,22.362-38.135,2-2.8,3.793-4.991,5.191-7.188,15.573-7.188,29.749-20.764,42.327-40.53,10.582-16.971,19.766-37.935,27.153-62.493h0c-2-34.94-2.8-69.081,8.585-102.025a127.619,127.619,0,0,1,23.16-41.529C542.668,16.771,556.843,6.789,573.215,1Z" fill="#878787"/>
    </g>
    <g id="Group_843" data-name="Group 843" transform="translate(141.462 143.354)">
      <path id="Path_769" data-name="Path 769" d="M565.628,0c-42.327,15.573-58.3,56.1-63.291,72.875-9.983,33.542-7.387,67.883-3.993,100.028-6.589,23.36-14.775,43.326-24.558,59.7-11.38,18.967-24.358,32.145-38.933,39.133h0a94.163,94.163,0,0,1-5.79,9.584A225.522,225.522,0,0,0,409.7,317.654c-3.993,9.783-6.988,18.768-9.783,27.353-4.193,13.177-7.986,24.757-14.375,34.74-10.981,16.971-32.943,31.745-57.3,38.733-2.6.8-5.391,1.6-7.986,2.2-17.769,4.792-36.138,9.983-44.723,21.563-7.387,9.983-5.391,19.966-2.995,31.546,2.2,10.781,4.792,22.961-.6,37.536-4.991,13.377-4.792,26.155-4.792,38.534,0,15.374.2,29.948-10.582,42.527-11.181,13.177-30.947,18.568-48.317,23.16-2.8.8-5.59,1.6-8.186,2.2-21.363,6.189-38.933,18.568-46.919,33.143-3.594,6.589-5.391,13.776-7.986,22.761a252.957,252.957,0,0,1-9.384,29.549c-5.391,14.176-12.179,25.955-18.169,36.537a164.727,164.727,0,0,0-9.983,19.367c-29.749,24.558-47.119,71.477-43.126,117,1,10.382,2.6,20.764,4.392,31.745,4.392,26.954,8.785,54.706,1.4,82.858C60.3,1028.832,32.744,1061.576,0,1073.955l.2.4c16.971-6.389,32.744-18.368,45.522-34.141A135.625,135.625,0,0,0,70.679,990.9c7.387-28.351,2.995-56.1-1.4-83.057-1.8-10.981-3.394-21.363-4.392-31.745-3.993-45.322,13.377-92.042,42.926-116.6h0c2.4-5.79,5.99-11.979,9.983-19.367,5.99-10.582,12.578-22.362,18.169-36.537a254.541,254.541,0,0,0,9.384-29.749c2.4-8.984,4.392-16.172,7.787-22.761,7.787-14.375,25.157-26.754,46.52-32.943,2.6-.8,5.391-1.4,8.186-2.2,17.37-4.792,37.136-10.182,48.517-23.36,10.781-12.778,10.781-27.353,10.781-42.926,0-12.179-.2-24.957,4.792-38.334,5.391-14.775,2.8-26.954.6-37.935-2.4-11.38-4.392-21.363,2.995-31.146,8.585-11.38,26.754-16.572,44.523-21.363,2.6-.8,5.391-1.4,7.986-2.2,24.358-6.988,46.52-21.962,57.5-38.933,6.589-9.983,10.182-21.563,14.575-34.74,2.8-8.785,5.79-17.769,9.783-27.353a221.838,221.838,0,0,1,19.367-36.138c2.4-3.594,4.193-6.788,5.79-9.583,14.575-6.988,27.553-20.365,38.933-39.332,9.783-16.372,17.969-36.537,24.558-59.9h0c-3.394-32.145-5.99-66.486,3.993-100.028C507.528,56.1,523.3,15.773,565.628.2Z" fill="#878787"/>
    </g>
    <g id="Group_844" data-name="Group 844" transform="translate(143.857 150.142)">
      <path id="Path_770" data-name="Path 770" d="M557.842,0c-42.327,16.172-56.7,57.3-60.9,74.272-8.585,34.141-4.193,68.482.6,98.031-7.188,28.152-23.959,77.667-57.3,95.037h0a133.691,133.691,0,0,1-6.589,13.177,288.68,288.68,0,0,0-16.172,33.143c-3.394,8.386-6.189,15.973-8.785,23.56-4.991,14.375-9.384,26.754-16.771,37.336-11.58,16.372-32.943,30.148-57.5,37.136-1.8.6-3.793,1-5.59,1.6-18.768,5.191-38.134,10.582-46.919,23.16-7.188,10.382-4.792,20.565-1.8,32.344,2.8,11.181,5.99,23.759.6,38.534-4.592,12.978-4.991,25.157-5.191,36.737-.4,15.374-.6,29.749-11.58,41.928-10.981,12.379-29.749,17.57-46.32,22.162-3.394,1-6.788,1.8-9.983,2.8-21.363,6.389-38.933,19.966-45.921,35.14-2.995,6.389-4.392,13.177-5.99,21.164-2,9.184-4.193,19.367-9.184,32.344-5.79,15.573-13.577,27.952-20.365,38.933-3.793,6.189-6.988,11.38-9.384,16.372-15.573,12.179-28.351,30.348-36.937,52.31A162.975,162.975,0,0,0,69.081,875.7c.6,10.382,2,20.964,3.394,31.945,3.594,27.353,7.188,55.7-1,84.056a131.455,131.455,0,0,1-25.955,48.517C32.744,1055.786,16.971,1067.366,0,1073.955l.2.4c16.971-6.389,32.943-18.169,45.921-33.742A133.863,133.863,0,0,0,72.076,991.9c8.186-28.551,4.592-56.9,1-84.255-1.4-10.981-2.8-21.563-3.394-31.945a165.639,165.639,0,0,1,10.582-68.283C88.847,785.65,101.426,767.481,117,755.3h0c2.4-4.991,5.59-10.182,9.384-16.372,6.788-10.981,14.575-23.56,20.365-39.133,4.991-12.978,7.188-23.36,9.184-32.544,1.6-7.986,3.195-14.775,5.99-20.964,6.988-15.174,24.358-28.551,45.721-34.94,3.195-1,6.589-1.8,9.983-2.8,16.572-4.592,35.539-9.783,46.52-22.362,10.981-12.379,11.38-26.954,11.78-42.327.2-11.78.6-23.759,5.191-36.737,5.391-14.974,2.2-27.752-.6-38.933-2.995-11.58-5.391-21.763,1.6-31.945,8.585-12.379,27.952-17.769,46.52-22.961,1.8-.6,3.793-1,5.59-1.6,24.558-6.988,46.32-20.964,57.7-37.336,7.387-10.582,11.78-22.961,16.771-37.336,2.6-7.387,5.391-15.174,8.785-23.56a348.156,348.156,0,0,1,15.973-32.943c2.8-5.391,5.191-9.584,6.589-13.177,33.542-17.37,50.513-67.284,57.5-95.436h0c-4.792-29.35-9.184-63.691-.6-97.832,4.193-16.771,18.568-57.9,60.5-73.873Z" fill="#878787"/>
    </g>
    <g id="Group_845" data-name="Group 845" transform="translate(146.253 156.93)">
      <path id="Path_771" data-name="Path 771" d="M549.855,0a87.828,87.828,0,0,0-39.931,32.145A114.125,114.125,0,0,0,491.555,75.67c-6.788,32.943-1.4,65.487,5.191,95.835-5.99,26.754-20.565,74.073-51.312,91.243h0c-1.4,4.991-4.193,10.781-7.986,18.967-3.394,7.387-7.787,16.372-12.379,27.752-2.6,6.589-4.991,12.578-7.188,18.568-5.99,15.973-10.981,29.749-19.566,40.93-11.78,15.374-33.343,28.551-57.9,35.339l-2.8.8c-19.966,5.59-40.53,11.38-49.116,24.757-6.988,10.981-3.794,21.763-.4,33.343,3.394,11.38,6.988,24.358,1.6,39.532-4.392,12.379-4.991,23.959-5.59,35.14-.8,15.773-1.4,29.549-12.578,41.329-10.781,11.58-27.952,16.372-44.523,21.164-3.993,1.2-7.986,2.2-11.78,3.394-25.756,8.186-40.131,24.558-45.122,37.136-2.4,6.189-3.394,12.578-4.592,19.966-1.6,9.783-3.194,20.764-8.386,34.541-6.189,16.572-15.174,29.948-22.362,40.93-3.394,4.991-6.589,9.783-8.985,13.976-16.572,12.379-30.148,30.947-39.532,53.508A174.322,174.322,0,0,0,73.673,874.7c.4,10.582,1.4,20.964,2.6,32.145,2.8,27.952,5.79,56.9-3.195,85.453a136.922,136.922,0,0,1-26.754,47.918c-13.377,15.573-29.35,26.954-46.32,33.343l.2.4c17.17-6.389,33.143-17.969,46.32-33.143a140.081,140.081,0,0,0,26.954-48.117c8.985-28.551,5.99-57.7,3.195-85.653-1.2-11.181-2.2-21.563-2.6-32.145a170.688,170.688,0,0,1,12.578-70.679c9.184-22.561,22.961-41.129,39.332-53.308h0c2.4-4.392,5.59-8.985,8.985-13.976,7.188-10.781,16.372-24.358,22.561-40.93,5.191-13.976,6.988-24.957,8.585-34.74,1.2-7.387,2.2-13.776,4.592-19.966,4.792-12.578,19.167-28.751,44.723-36.937,3.793-1.2,7.587-2.2,11.78-3.394,16.572-4.792,33.942-9.583,44.723-21.164,11.38-11.979,11.979-26.355,12.778-41.728.6-11.181,1.2-22.761,5.391-34.94,5.391-15.374,1.6-28.351-1.6-39.931-3.394-11.78-6.389-22.162.4-32.943,8.585-13.377,29.15-19.167,48.916-24.558l2.8-.8c24.558-6.788,46.32-20.165,58.1-35.539,8.585-11.181,13.776-24.957,19.766-41.129q3.294-8.985,7.188-18.568c4.592-11.38,8.985-20.365,12.379-27.752,3.793-8.186,6.589-13.976,7.986-18.967,30.947-17.37,45.522-64.888,51.511-91.643h0c-6.589-30.148-11.979-62.692-5.191-95.636a114.714,114.714,0,0,1,18.368-43.326C521.1,17.57,534.482,6.788,550.454.4Z" fill="#878787"/>
    </g>
    <g id="Group_846" data-name="Group 846" transform="translate(148.25 163.719)">
      <path id="Path_772" data-name="Path 772" d="M542.468,0c-15.973,6.589-29.15,17.57-39.133,32.744a114.839,114.839,0,0,0-16.771,44.124c-5.391,33.542,2,66.086,9.783,93.639-4.792,25.356-17.171,70.279-45.322,87.45h0v.2c-1.2,6.788-4.991,15.973-10.382,28.551-2.2,5.391-4.792,11.58-7.587,18.568-1.6,4.193-3.195,8.186-4.792,12.179-6.988,18.169-13.177,33.942-23.36,46.121-12.179,14.575-33.542,26.954-58.1,33.742-20.165,5.59-42.926,11.979-51.711,26.554-6.788,11.381-3.194,22.561.8,34.141,3.793,11.58,8.186,24.957,2.8,40.53-3.993,11.78-4.991,22.761-5.79,33.343-1.2,15.773-2.2,29.35-13.776,40.93-10.582,10.781-26.954,15.573-42.926,19.966-4.592,1.4-8.985,2.6-13.377,3.993-21.563,7.188-38.733,22.561-44.124,39.332-2,5.99-2.6,12.179-3.394,19.367-1,10.182-2.2,21.763-7.587,36.338-6.389,17.57-16.372,31.146-24.558,42.128-3.195,4.193-6.189,8.386-8.585,12.179-17.37,12.578-31.945,31.546-42.128,54.906A178.465,178.465,0,0,0,78.066,874.3c.2,10.582,1,20.964,1.8,32.145,2.2,28.551,4.392,58.1-5.59,86.851C61.694,1030.23,33.143,1060.778,0,1073.156l.2.4c33.343-12.379,61.894-43.126,74.472-80.262,9.783-28.751,7.587-58.5,5.59-87.05-.8-11.181-1.6-21.763-1.8-32.145A184.936,184.936,0,0,1,92.84,801.024c9.983-23.36,24.558-42.327,41.928-54.706h0c2.4-3.793,5.391-7.787,8.585-12.179,8.186-10.981,18.169-24.757,24.558-42.327,5.391-14.575,6.589-26.155,7.587-36.537.8-7.188,1.4-13.377,3.394-19.367,5.391-16.571,22.561-31.945,43.925-38.933,4.193-1.4,8.585-2.6,13.377-3.993,15.973-4.592,32.344-9.184,43.126-20.165,11.58-11.78,12.578-25.357,13.776-41.329.8-10.582,1.6-21.563,5.79-33.143,5.59-15.773,1-28.95-2.8-40.73-3.793-11.58-7.387-22.561-.8-33.742,8.585-14.375,31.346-20.764,51.312-26.355,24.757-6.788,46.121-19.167,58.5-33.942,10.182-12.179,16.372-27.952,23.36-46.121,1.6-3.993,3.195-7.986,4.792-12.179,2.8-6.988,5.391-13.177,7.587-18.568,5.391-12.578,9.184-21.763,10.382-28.551,28.152-17.37,40.53-62.493,45.522-87.849h0c-7.787-27.353-15.174-60.1-9.783-93.439,1.8-11.181,5.99-27.752,16.771-43.925C513.717,17.77,526.695,6.788,542.667.2Z" fill="#878787"/>
    </g>
    <g id="Group_847" data-name="Group 847" transform="translate(151.045 170.507)">
      <path id="Path_773" data-name="Path 773" d="M534.082,0a82.91,82.91,0,0,0-38.334,33.542c-10.182,16.572-13.776,33.542-15.174,44.723-3.793,34.141,5.79,66.885,14.375,91.443-3.793,23.959-13.976,66.486-39.332,83.656h0v.2c-.6,9.584-5.99,23.36-14.974,46.121l-1.8,4.792c-8.785,22.561-15.973,40.331-28.152,53.708-12.379,13.577-33.742,25.356-58.5,31.945-22.561,6.189-43.326,12.778-51.312,27.353-6.589,11.979-2.4,23.16,2,35.14,4.592,12.578,9.384,25.556,3.993,41.329-3.793,10.981-4.792,21.363-5.99,31.346-1.8,15.773-3.195,29.35-14.974,40.73-10.382,10.182-26.155,14.575-41.329,18.967-5.191,1.6-10.183,2.995-14.775,4.592-26.355,9.184-39.732,27.952-43.326,41.329-1.6,5.99-1.8,12.379-2.2,18.967-.6,10.582-1.2,22.761-6.589,37.735-6.589,18.369-17.57,32.145-26.355,43.126-2.995,3.793-5.79,7.188-8.186,10.582-36.338,24.957-60.3,76.668-60.9,131.774-.2,10.582.4,20.964,1,32.145,1.4,29.15,2.8,59.3-7.787,88.248-13.377,36.338-42.327,66.486-75.47,78.865l.2.4c33.343-12.379,62.293-42.727,75.87-79.064,10.781-29.15,9.184-59.3,7.787-88.448-.6-11.181-1-21.763-1-32.145.6-54.906,24.558-106.617,60.9-131.374h0c2.4-3.394,5.191-6.988,8.186-10.582,8.985-11.181,19.966-24.957,26.554-43.326,5.391-15.174,5.99-27.353,6.589-37.935.4-6.589.6-12.978,2.2-18.967,3.394-13.177,16.771-31.945,42.926-40.93,4.792-1.6,9.584-2.995,14.775-4.592,15.174-4.392,30.947-8.984,41.529-19.167,11.78-11.38,13.377-25.157,14.974-40.93,1-9.983,2.2-20.165,5.99-31.146,5.59-15.973.6-29.749-3.993-41.728-4.392-11.78-8.585-23.16-2-34.74,7.986-14.375,29.549-21.363,51.112-27.153,24.757-6.788,46.121-18.568,58.7-32.145,12.179-13.377,19.167-31.146,28.152-53.708l1.8-4.792c8.984-22.761,14.575-36.537,14.974-46.32,25.556-17.17,35.739-59.9,39.532-83.856h0c-8.785-24.558-18.169-57.3-14.375-91.443a107.77,107.77,0,0,1,14.974-44.523C505.931,18.169,518.709,6.988,534.482.4Z" fill="#878787"/>
    </g>
    <g id="Group_848" data-name="Group 848" transform="translate(152.842 177.295)">
      <path id="Path_774" data-name="Path 774" d="M526.895,0c-34.541,15.174-48.916,51.112-50.912,79.663-2.4,34.74,9.783,67.684,18.967,89.446-2.6,22.561-10.582,62.892-33.343,79.863h0v.2c.6,10.382-4.592,26.155-13.177,48.117-8.785,22.362-16.971,42.128-30.747,55.7-12.778,12.778-33.742,23.56-58.9,30.348-21.962,5.99-43.326,13.377-50.913,28.351-6.389,12.379-1.6,23.959,3.394,36.138,5.191,12.778,10.582,25.955,4.991,42.327-3.394,10.183-4.792,19.966-5.99,29.15-2.2,15.773-3.993,29.549-16.172,40.53-10.382,9.384-25.356,13.776-39.931,17.969-5.391,1.6-11.181,3.195-16.372,5.191a72.365,72.365,0,0,0-28.751,18.568c-6.988,7.587-11.979,16.372-13.577,24.758-1.2,5.99-1.2,12.379-1.2,18.967,0,10.981,0,23.56-5.59,39.133-6.788,19.367-18.967,37.336-36.338,53.308C112.407,774.669,88.648,823.984,86.851,873.3c-.4,10.582-.2,20.964.2,32.145.6,29.749,1.4,60.7-10.182,89.846a143.913,143.913,0,0,1-29.749,46.121A127.271,127.271,0,0,1,0,1072.957l.2.4c17.17-6.389,33.542-17.37,47.319-31.745a142.625,142.625,0,0,0,29.749-46.32c11.58-29.35,10.981-60.1,10.183-90.045-.2-11.181-.4-21.563-.2-32.145,1.6-49.116,25.556-98.431,65.288-135.168,17.37-15.973,29.549-34.141,36.338-53.508,5.391-15.573,5.59-28.152,5.59-39.133,0-6.589,0-12.778,1.2-18.768,1.6-8.386,6.389-16.971,13.577-24.558A73.058,73.058,0,0,1,237.791,583.4c5.191-1.8,10.781-3.594,16.172-4.991,14.575-4.193,29.549-8.585,39.931-18.169,12.179-11.181,14.176-24.957,16.372-40.93,1.2-9.184,2.6-18.768,5.99-29.15,5.59-16.372.2-29.749-4.991-42.527-4.991-12.179-9.584-23.56-3.394-35.739,7.587-14.775,28.751-22.162,50.713-28.152,25.157-6.788,46.121-17.57,59.1-30.348,13.776-13.577,21.962-33.343,30.747-55.9,8.585-21.962,13.776-37.735,13.177-48.117,9.783-7.387,27.153-27.553,33.542-80.062h0c-9.184-21.563-21.363-54.506-18.967-89.247C477.979,51.711,492.354,15.773,526.7.8Z" fill="#878787"/>
    </g>
    <g id="Group_849" data-name="Group 849" transform="translate(155.637 184.283)">
      <path id="Path_775" data-name="Path 775" d="M518.709,0c-15.374,6.988-28.152,19.167-36.537,35.14a105.808,105.808,0,0,0-11.78,45.921c-.8,35.139,13.177,66.486,23.559,87.25-1.6,21.164-7.387,59.1-27.353,76.069h0v.2c1.6,9.983-1.8,24.957-10.781,48.517-7.787,20.165-16.971,40.73-31.945,54.506-16.372,14.974-41.329,23.959-59.1,28.551-19.566,5.191-43.126,13.177-50.513,29.35-5.99,12.778-.8,24.758,4.592,37.136,5.79,12.978,11.58,26.554,6.189,43.126-3.195,9.384-4.592,18.169-5.99,26.754-2.8,15.973-4.991,29.949-17.57,40.73-10.182,8.785-24.558,12.978-38.334,16.971-5.99,1.8-11.979,3.594-17.57,5.59-25.356,9.584-39.133,29.749-41.529,45.322-1,6.189-.6,12.379-.4,18.967.6,11.38,1.2,24.358-4.392,40.131-8.585,25.356-25.756,42.327-37.935,52.909a209.243,209.243,0,0,0-48.317,61.295A191.349,191.349,0,0,0,91.443,872.3c-.6,10.382-.6,21.363-.6,31.945,0,30.548-.2,62.093-12.578,91.443a147.836,147.836,0,0,1-30.747,45.522C33.542,1055.187,17.17,1065.969,0,1072.358l.2.4a132.627,132.627,0,0,0,47.518-31.146,146.368,146.368,0,0,0,30.747-45.721c12.578-29.549,12.578-61.1,12.578-91.643,0-10.981,0-21.563.6-31.945,1.4-26.754,8.785-52.909,21.563-77.667a205.213,205.213,0,0,1,48.117-61.1,172.219,172.219,0,0,0,20.764-21.363,109.325,109.325,0,0,0,17.37-31.546c5.391-15.973,4.792-28.95,4.392-40.331-.4-6.589-.6-12.778.4-18.967,2.4-15.573,15.973-35.539,41.129-45.122,5.59-2.2,11.78-3.793,17.57-5.59,13.976-3.993,28.351-8.186,38.534-17.17,12.578-10.981,14.974-24.957,17.57-40.93a181.1,181.1,0,0,1,5.99-26.754c5.59-16.771-.4-30.348-6.189-43.525-5.391-12.379-10.582-24.159-4.592-36.737,7.387-15.773,30.747-23.759,50.314-28.95,17.969-4.792,42.727-13.577,59.3-28.751,15.174-13.776,24.358-34.341,32.145-54.506C465,269.737,468.4,254.762,466.8,244.58c8.585-7.387,23.759-27.153,27.353-76.269h0c-10.382-20.565-24.358-52.11-23.56-87.05a104.95,104.95,0,0,1,11.78-45.722A77.825,77.825,0,0,1,518.709.6Z" fill="#878787"/>
    </g>
    <g id="Group_850" data-name="Group 850" transform="translate(157.634 191.072)">
      <path id="Path_776" data-name="Path 776" d="M511.122,0c-15.374,7.188-27.752,19.566-35.739,35.938A100.332,100.332,0,0,0,465.2,82.458c.6,26.554,9.983,54.307,28.152,85.054-1,34.141-8.585,59.7-21.363,72.076h0v.2c2.8,10.582,0,26.554-8.386,48.916-9.583,25.556-19.966,41.928-33.143,53.109-13.177,10.981-33.143,19.966-59.5,26.954-17.969,4.792-42.727,12.978-50.314,30.148-5.79,13.377-.2,25.357,5.79,38.135,6.189,13.377,12.778,27.153,7.188,43.925a175.405,175.405,0,0,0-5.79,24.159c-3.194,16.372-5.99,30.348-18.967,41.129-9.983,8.186-23.759,12.179-36.937,16.172a191.508,191.508,0,0,0-18.967,6.189,69.458,69.458,0,0,0-28.351,20.365c-6.788,8.386-11.181,17.969-12.179,26.954-.6,6.189,0,12.578.6,19.167,1,11.78,2.4,24.957-2.995,41.129-8.186,24.558-25.356,40.73-39.532,52.31A206.315,206.315,0,0,0,96.235,871.5c-.8,10.382-1,21.164-1.4,31.745-.8,31.146-1.6,63.491-14.974,93.04C63.89,1031.228,34.141,1059.58,0,1071.958l.2.4c34.141-12.578,63.89-40.73,79.663-75.67,13.377-29.749,14.375-62.093,15.174-93.24.2-10.582.6-21.363,1.4-31.745a205.379,205.379,0,0,1,23.36-80.262,201.224,201.224,0,0,1,50.913-62.293c14.176-11.58,31.546-27.952,39.732-52.51,5.391-16.172,4.193-29.549,3.195-41.329-.6-6.589-1.2-12.978-.6-19.167,1-8.985,5.191-18.568,11.979-26.754a70.152,70.152,0,0,1,28.152-20.365c5.99-2.4,12.578-4.193,18.967-6.189,13.377-3.793,27.153-7.986,37.136-16.172,13.177-10.781,15.973-24.957,19.167-41.329,1.6-7.587,3.195-15.573,5.79-24.159,5.59-16.971-1-30.947-7.387-44.324-5.99-12.778-11.58-24.758-5.79-37.935,7.387-16.971,31.945-25.157,49.914-29.949,26.355-6.988,46.52-15.973,59.7-26.954C444.037,330.832,454.22,314.46,464,288.7c8.386-22.362,11.181-38.534,8.585-49.116,12.778-12.578,20.365-38.334,21.363-72.475h0c-18.368-30.747-27.553-58.5-28.152-84.854a101.891,101.891,0,0,1,9.983-46.32C483.769,19.766,496.148,7.387,511.322.2Z" fill="#878787"/>
    </g>
    <g id="Group_851" data-name="Group 851" transform="translate(160.429 197.86)">
      <path id="Path_777" data-name="Path 777" d="M502.936,0C487.762,7.388,475.583,19.966,468,36.537a97.577,97.577,0,0,0-8.386,47.119c1.8,26.554,12.578,53.708,32.744,82.858.8,31.745-4.592,55.9-15.374,68.283v.4c3.993,10.981,1.8,28.152-5.99,49.315-8.985,23.959-20.165,40.93-34.541,51.911-13.177,9.983-32.744,18.169-59.7,25.157-28.152,7.188-44.324,17.37-49.914,31.146s.6,26.155,7.188,39.332c6.788,13.577,13.776,27.752,8.386,44.723a203.272,203.272,0,0,0-5.391,20.964c-3.793,16.771-7.188,31.346-20.764,41.928-9.783,7.587-22.961,11.38-35.739,15.174-6.788,2-13.776,3.993-20.165,6.589-22.162,8.985-38.334,29.35-39.732,49.515-.4,6.389.4,12.778,1.4,19.367,1.6,11.979,3.594,25.556-1.8,41.928-7.787,23.759-25.157,39.532-41.129,51.911C135.168,757.7,105.818,812.6,100.228,870.7c-1,10.382-1.6,21.164-2,31.546-1.6,31.945-3.195,64.888-17.57,94.837C64.29,1031.228,34.141,1058.981,0,1071.359l.2.4c34.341-12.578,64.489-40.331,81.061-74.472C95.636,967.338,97.233,934.2,98.83,902.25c.6-10.382,1-21.164,2-31.546,5.59-58.1,34.94-112.806,78.665-146.349,16.172-12.379,33.542-28.152,41.329-52.11,5.391-16.372,3.594-30.148,1.8-42.128-1-6.788-1.8-12.978-1.4-19.367,1.2-19.966,17.37-40.131,39.332-49.116,6.389-2.6,13.377-4.592,20.165-6.589,12.778-3.793,25.955-7.587,35.739-15.174,13.776-10.782,17.171-25.357,20.964-42.327,1.6-6.788,3.195-13.577,5.391-20.964,5.59-17.171-1.6-31.346-8.386-45.123-6.389-12.978-12.578-25.356-7.188-38.933s21.563-23.559,49.515-30.747c27.153-6.988,46.72-15.374,59.9-25.357,14.375-10.981,25.756-27.952,34.541-52.111,7.986-21.363,9.983-38.534,6.189-49.515,10.781-12.578,16.172-36.937,15.374-68.682h0c-20.165-29.15-30.947-56.3-32.744-82.658C457.015,41.728,479.576,11.58,503.136,0Z" fill="#878787"/>
    </g>
    <g id="Group_852" data-name="Group 852" transform="translate(162.426 204.648)">
      <path id="Path_778" data-name="Path 778" d="M495.349,0C480.175,7.587,468.4,20.565,461.208,37.336a97.406,97.406,0,0,0-6.788,47.718c3.195,26.554,15.374,53.109,37.336,80.861,2.6,29.35-.8,52.11-9.384,64.489v.4c5.191,11.38,3.793,29.15-3.794,49.914-8.386,22.961-20.365,39.931-35.739,50.513-16.572,11.38-39.732,18.368-60.1,23.559-18.967,4.792-42.926,14.375-49.515,31.945-5.391,14.375,1.4,26.954,8.386,40.331,7.387,13.776,14.974,28.152,9.584,45.522q-2.7,8.985-4.792,17.37c-4.592,17.57-8.386,32.744-22.761,43.525-9.584,6.988-22.162,10.781-34.341,14.176a160.642,160.642,0,0,0-21.563,7.188,66.893,66.893,0,0,0-28.152,22.162c-6.589,9.184-10.382,19.566-10.582,29.35-.2,6.589,1,12.978,2.2,19.766,2.4,12.978,4.792,26.155-.6,42.727-7.787,24.358-26.155,39.133-42.926,51.312-45.122,32.744-76.269,89.047-83.257,150.342-1.2,10.182-2,20.764-2.6,31.146-2.2,32.744-4.592,66.486-19.966,96.634-16.771,33.343-47.518,60.7-81.859,73.074l.2.4c34.541-12.578,65.288-39.931,82.259-73.474,15.374-30.348,17.769-64.09,20.165-96.834.8-10.382,1.4-20.964,2.6-31.146,6.988-61.295,37.935-117.4,83.057-149.942,16.771-12.179,35.14-27.153,42.926-51.511,5.391-16.572,2.8-30.548.6-42.926-1.2-6.788-2.4-13.177-2.2-19.766.2-9.583,3.993-19.966,10.582-29.15a66.313,66.313,0,0,1,27.952-22.162,190.842,190.842,0,0,1,21.363-6.988c12.179-3.594,24.757-7.188,34.541-14.176C338.618,522.9,342.611,507.727,347,489.958c1.4-5.59,2.8-11.38,4.792-17.37,5.391-17.57-2.2-31.945-9.583-45.921-6.988-13.377-13.577-25.756-8.386-39.931,3.594-9.584,14.974-22.961,49.116-31.745,20.565-5.191,43.725-12.179,60.3-23.56,15.374-10.582,27.553-27.752,35.938-50.713,7.587-20.764,8.985-38.534,3.794-50.114,8.585-12.379,11.979-35.539,9.384-64.889h0c-21.962-27.752-34.141-54.107-37.336-80.661a96.293,96.293,0,0,1,6.788-47.518C468.994,20.764,480.774,7.786,495.748.4Z" fill="#878787"/>
    </g>
    <g id="Group_853" data-name="Group 853" transform="translate(164.622 211.437)">
      <path id="Path_779" data-name="Path 779" d="M487.762,0c-33.343,17.17-43.326,56.9-38.534,86.451,4.393,26.554,18.169,52.31,41.928,78.665,4.393,26.954,3.195,48.517-3.394,60.7v.4c6.589,11.78,5.99,29.749-1.4,50.314-7.986,22.362-20.365,38.933-37.136,49.315-16.372,10.182-38.733,16.372-60.5,21.763-15.573,3.993-42.527,13.377-49.116,32.943-4.991,14.775,2.2,27.752,9.783,41.329,7.787,14.176,15.973,28.751,10.582,46.32-1.4,4.393-2.6,8.585-3.594,12.778C351,500.54,346.6,516.113,331.031,526.7c-9.384,6.589-21.363,9.983-33.143,13.177-7.587,2.2-15.573,4.392-22.761,7.587a65.872,65.872,0,0,0-27.952,23.16c-6.589,9.583-9.983,20.365-9.783,30.547.2,6.788,1.6,13.377,3.195,20.365,2.8,13.177,5.79,26.754.6,43.326-7.986,25.756-29.949,40.93-44.523,50.913-46.52,31.945-79.264,89.446-87.649,154.135-1.4,9.983-2.2,20.565-3.195,30.747-2.995,33.542-6.189,68.083-22.561,98.631a159.521,159.521,0,0,1-34.341,42.926A151.006,151.006,0,0,1,0,1071.16l.2.4a151.594,151.594,0,0,0,48.916-29.15,154.454,154.454,0,0,0,34.541-43.126c16.372-30.548,19.566-65.288,22.561-98.83,1-10.182,1.8-20.565,3.195-30.747,8.386-64.489,41.129-121.791,87.45-153.736,14.575-9.983,36.537-25.157,44.723-51.112,5.191-16.771,2.2-30.348-.6-43.525-1.6-6.988-2.995-13.577-2.995-20.165-.2-9.983,3.394-20.764,9.783-30.148a66.064,66.064,0,0,1,27.752-22.961c7.188-3.195,14.974-5.391,22.761-7.587,11.58-3.394,23.759-6.788,33.143-13.377,15.773-10.781,19.966-26.355,25.556-46.121,1.2-3.993,2.4-8.386,3.594-12.778,5.391-17.769-2.8-32.544-10.582-46.72-7.587-13.577-14.775-26.355-9.783-41.129C346.8,360.98,373.558,351.6,388.932,347.8c21.763-5.391,44.124-11.58,60.5-21.962,16.771-10.382,29.15-27.153,37.136-49.515,7.387-20.565,7.986-38.534,1.4-50.513,6.589-12.379,7.787-33.942,3.394-60.9h0c-23.959-26.155-37.535-51.911-41.928-78.465C444.636,56.9,454.419,17.37,487.562.4Z" fill="#878787"/>
    </g>
    <g id="Group_854" data-name="Group 854" transform="translate(167.217 218.225)">
      <path id="Path_780" data-name="Path 780" d="M479.776,0C464.8,7.986,453.421,21.363,447.232,38.933c-5.391,15.374-6.788,33.143-3.394,48.916,5.59,26.554,20.764,51.512,46.52,76.469,4.193,17.57,8.186,41.529,2.6,56.9v.2h0c7.787,12.179,8.186,30.548,1,50.713-7.587,21.563-20.764,38.135-38.334,47.918-15.973,8.984-36.537,14.176-58.5,19.566l-2.2.6c-12.379,2.995-42.128,12.578-48.716,33.742-4.792,15.374,2.8,28.551,10.981,42.527,8.386,14.375,16.971,29.35,11.78,47.119-.6,2.2-1.4,4.393-2,6.589-6.389,21.563-11.38,38.733-28.351,49.715-9.184,5.99-20.764,9.184-31.745,12.379-7.986,2.2-16.372,4.592-23.959,7.986-22.561,10.183-38.134,33.542-36.937,55.7.4,6.988,2.2,13.577,3.993,20.764,3.394,13.377,6.988,27.353,2,43.924-7.787,25.157-29.949,39.732-46.121,50.314h0c-24.558,15.973-45.322,38.733-61.494,67.284-15.174,26.754-25.756,58.1-30.747,90.445-1.4,9.983-2.6,20.165-3.793,30.148-3.793,34.341-7.787,69.68-25.157,100.427A160.127,160.127,0,0,1,0,1070.161l.2.4c35.539-12.778,66.486-38.733,84.854-71.078,17.37-30.947,21.363-66.486,25.356-100.627,1.2-9.983,2.2-20.365,3.793-30.148,4.792-32.344,15.374-63.491,30.548-90.245,16.172-28.551,36.937-51.312,61.494-67.284h0c16.172-10.582,38.534-25.157,46.32-50.513,5.191-16.771,1.6-30.747-2-44.124-1.8-7.188-3.594-13.776-3.993-20.764-1.2-21.962,14.176-45.122,36.737-55.3a160.578,160.578,0,0,1,23.959-7.986c11.181-3.195,22.561-6.389,31.945-12.379,17.171-11.181,22.162-28.152,28.551-49.914.6-2.2,1.2-4.392,2-6.589,5.391-18.169-3.394-33.143-11.78-47.518C350,402.109,342.212,389.131,347,373.957c6.589-20.964,36.138-30.547,48.517-33.542l2.2-.6c21.962-5.391,42.527-10.582,58.5-19.566,17.57-9.983,30.947-26.554,38.534-48.317,7.188-20.165,6.788-38.933-1-51.112,5.59-15.573,1.6-39.732-2.6-57.1h0C465.4,138.961,450.226,114,444.636,87.45,438.247,56.7,448.429,16.971,480.375,0Z" fill="#878787"/>
    </g>
    <g id="Group_855" data-name="Group 855" transform="translate(169.414 225.013)">
      <path id="Path_781" data-name="Path 781" d="M471.989.2c-18.967,10.182-27.752,27.353-31.745,39.732a88.983,88.983,0,0,0-1.6,49.515c6.788,26.554,23.559,50.913,51.112,74.272,7.986,23.16,10.781,41.129,8.585,53.109h0c8.984,12.379,10.182,31.346,3.394,51.112-4.991,14.775-16.172,34.74-39.532,46.72-14.375,7.387-32.145,11.58-50.713,15.973-3.394.8-6.788,1.6-10.382,2.4-7.986,2-19.766,5.79-29.949,12.379-9.783,6.389-15.973,13.976-18.368,22.362-4.592,15.773,3.594,29.35,12.379,43.525,8.985,14.575,18.169,29.749,12.778,47.918-6.589,22.761-12.379,42.327-31.745,54.107-8.985,5.391-19.966,8.386-30.348,11.38-8.585,2.4-17.37,4.792-25.157,8.585-22.761,10.781-37.935,34.94-35.938,57.7.6,7.188,2.6,13.976,4.792,21.363,3.993,13.577,8.186,27.752,3.195,44.524-7.387,24.757-28.95,38.134-46.52,48.916l-1.4.8c-25.556,15.773-47.119,38.933-64.09,68.482-15.773,27.353-26.954,59.3-32.544,92.84-1.6,9.783-2.995,19.766-4.193,29.549-4.592,35.14-9.384,71.477-27.952,102.624-18.768,31.546-50.114,57.1-86.052,69.88l.2.4c35.938-12.778,67.484-38.334,86.252-70.08,18.568-31.146,23.36-67.484,27.952-102.823,1.2-9.783,2.6-19.966,4.193-29.549,5.59-33.542,16.771-65.487,32.344-92.84,16.971-29.549,38.534-52.709,64.09-68.482l1.4-.8c17.57-10.781,39.133-24.358,46.72-49.315,4.991-16.971.8-31.146-3.195-44.723-2.2-7.387-4.193-14.176-4.792-21.363-1-10.582,2-22.162,8.386-32.544A64.138,64.138,0,0,1,290.9,533.084c7.787-3.594,16.572-6.189,25.157-8.585,10.582-2.995,21.563-5.99,30.548-11.38,19.367-11.78,25.157-31.346,31.945-54.307,5.391-18.369-3.793-33.542-12.778-48.317-8.585-14.176-16.771-27.553-12.179-43.126,2.4-8.386,8.585-15.773,18.169-22.162a95.531,95.531,0,0,1,29.749-12.179c3.394-.8,6.988-1.6,10.382-2.4,18.768-4.393,36.338-8.585,50.913-15.973,12.978-6.589,30.548-20.165,39.732-46.919,6.788-19.966,5.59-39.133-3.394-51.511,2.2-12.179-.6-30.148-8.585-53.308h0C463,139.56,446.233,115.2,439.445,88.848a91.991,91.991,0,0,1,1.6-49.315C445.035,27.154,453.82,10.183,472.588,0Z" fill="#878787"/>
    </g>
    <g id="Group_856" data-name="Group 856" transform="translate(171.21 231.801)">
      <path id="Path_782" data-name="Path 782" d="M464.8.2c-18.768,10.582-27.153,27.952-30.947,40.53a89.145,89.145,0,0,0,0,50.114c7.986,26.355,26.155,50.114,55.7,72.276,9.983,21.563,14.575,37.735,14.575,49.315h0c10.382,12.578,12.578,31.945,5.79,51.711a76.272,76.272,0,0,1-40.93,45.522c-13.177,5.99-28.551,9.384-44.923,12.978-5.391,1.2-10.981,2.4-16.372,3.794-9.783,2.4-41.728,11.78-48.117,35.739-4.193,16.372,4.392,30.148,13.577,44.723,9.384,14.974,19.167,30.348,13.776,48.716-6.988,24.358-14.974,41.728-33.143,51.711-8.785,4.792-19.167,7.787-29.15,10.382-8.985,2.4-18.169,4.991-26.554,8.985a63.507,63.507,0,0,0-27.553,25.756c-6.189,10.781-8.985,22.961-7.587,33.942.8,7.387,3.195,14.375,5.59,21.962,4.592,13.976,9.384,28.152,4.392,45.122-7.188,24.358-29.15,37.336-46.919,47.918-.8.6-1.8,1-2.6,1.6-26.355,15.573-48.916,39.133-66.685,69.88-16.172,27.752-27.952,60.7-34.341,95.436-1.8,9.584-3.195,19.367-4.592,28.95-5.391,35.938-10.981,73.274-30.548,104.62-19.167,30.747-50.913,55.9-87.25,68.682l.2.4c36.338-12.978,68.283-37.935,87.45-68.882,19.566-31.546,25.157-68.882,30.747-104.82,1.4-9.583,2.995-19.367,4.592-28.95,6.389-34.74,18.169-67.684,34.341-95.236,17.769-30.547,40.331-53.907,66.685-69.68.8-.4,1.6-1,2.6-1.6,17.769-10.582,39.931-23.56,47.119-48.117,4.991-16.971.2-31.346-4.392-45.322-2.4-7.387-4.792-14.575-5.59-21.962-1.2-10.981,1.4-22.761,7.587-33.742a64.208,64.208,0,0,1,27.353-25.756c8.186-3.993,17.57-6.589,26.355-8.985,9.983-2.8,20.365-5.59,29.15-10.582,18.169-10.183,26.355-27.553,33.343-52.11,5.391-18.568-4.393-34.141-13.976-49.116-9.184-14.575-17.769-28.152-13.577-44.324,1.6-5.99,9.583-26.155,47.718-35.339,5.59-1.4,10.981-2.6,16.372-3.794,16.372-3.594,31.945-6.988,45.122-12.978a76.946,76.946,0,0,0,41.129-45.721c6.788-19.766,4.592-39.332-5.79-52.111,0-11.78-4.792-27.952-14.575-49.515h0c-29.549-22.162-47.718-45.721-55.7-72.076a88.447,88.447,0,0,1,0-49.914C438.047,27.752,446.433,10.582,465,0Z" fill="#878787"/>
    </g>
    <g id="Group_857" data-name="Group 857" transform="translate(174.006 238.79)">
      <path id="Path_783" data-name="Path 783" d="M456.416,0c-31.546,18.169-39.332,61.095-28.551,92.042,9.184,26.355,28.95,49.315,60.3,70.08,8.186,13.776,18.169,31.346,20.565,45.522h0c11.58,12.778,14.575,32.744,8.186,52.11-8.985,27.353-30.348,39.332-42.128,44.124-12.179,4.991-25.955,7.587-40.53,10.582-6.988,1.4-13.976,2.8-21.164,4.393-19.966,4.792-42.926,16.771-47.718,36.537-3.993,16.771,5.59,31.546,14.974,45.721,9.983,15.174,20.165,30.747,14.974,49.515-7.188,25.955-17.57,40.73-34.341,49.515-8.386,4.393-18.169,6.988-27.752,9.584-9.384,2.6-19.167,5.191-27.752,9.384-22.96,11.58-37.735,38.134-34.141,61.894,1.2,7.587,3.793,14.974,6.589,22.561,5.191,14.176,10.382,28.751,5.59,45.522-6.788,23.959-29.35,36.537-47.319,46.72a34.71,34.71,0,0,1-3.793,2c-27.353,15.573-50.713,39.332-69.281,71.078-16.572,28.152-29.15,61.894-36.138,97.832-1.8,9.384-3.394,18.967-4.991,28.351C115.8,932,109.412,970.133,88.648,1001.878a164.156,164.156,0,0,1-38.334,40.73A184.905,184.905,0,0,1,0,1069.562l.2.4a187.873,187.873,0,0,0,50.314-26.954,165.044,165.044,0,0,0,38.534-40.73c20.764-31.945,27.153-70.08,33.542-107.016,1.6-9.384,3.195-18.967,4.991-28.152,6.988-35.938,19.566-69.68,36.138-97.832,18.768-31.546,41.928-55.3,69.281-70.878,1.2-.6,2.4-1.4,3.793-2,18.169-10.182,40.73-22.961,47.518-46.919,4.792-16.971-.4-31.745-5.59-45.921-2.8-7.587-5.391-14.974-6.589-22.561-3.394-23.559,11.181-49.914,33.942-61.295,8.585-4.393,18.368-6.988,27.752-9.384,9.384-2.6,19.367-5.191,27.752-9.583,16.971-8.785,27.353-23.759,34.74-49.715,5.191-18.967-4.991-34.541-14.974-49.914-9.783-14.775-18.768-28.751-14.775-45.322,4.592-19.566,27.553-31.546,47.319-36.138,7.188-1.6,14.176-3.195,21.164-4.393,14.575-2.995,28.351-5.59,40.73-10.582,11.979-4.792,33.343-16.971,42.327-44.523,6.589-19.566,3.394-39.732-8.186-52.51-2.6-14.375-12.379-31.945-20.764-45.721h0c-31.346-20.764-51.112-43.525-60.3-69.88C418.082,61.295,425.669,18.568,457.214.6Z" fill="#878787"/>
    </g>
    <g id="Group_858" data-name="Group 858" transform="translate(176.202 245.578)">
      <path id="Path_784" data-name="Path 784" d="M448.829,0c-14.575,8.585-24.957,23.56-29.35,42.128a88,88,0,0,0,3.394,51.312c10.382,26.155,31.546,48.317,64.889,67.883,10.781,13.776,21.763,28.551,26.554,41.728h0c9.983,10.182,18.169,29.35,10.582,52.51-6.389,19.766-22.162,35.339-43.525,42.926-11.381,3.993-23.959,6.189-37.136,8.585-8.186,1.4-16.572,2.8-24.957,4.792-11.181,2.6-21.763,7.188-29.749,13.177-9.384,6.788-15.573,15.174-17.37,24.358-3.793,17.37,6.389,32.344,16.172,46.919,10.382,15.374,21.164,31.346,15.973,50.314-6.389,23.36-17.969,38.933-35.739,47.319-8.186,3.793-17.37,6.189-26.155,8.585-9.983,2.6-20.165,5.191-29.15,9.983-23.16,11.979-37.535,39.532-33.343,63.89,1.4,7.787,4.392,15.773,7.387,23.16,5.59,14.375,11.58,29.15,6.788,46.121-6.589,23.56-28.551,35.339-47.918,45.721-1.6.8-3.194,1.8-4.792,2.6-28.152,15.374-52.51,39.732-71.876,72.276-16.971,28.351-30.148,63.092-38.135,100.427-2,8.985-3.594,18.368-5.391,27.553C119,932,111.608,971.132,89.846,1003.276,69.68,1032.826,37.735,1056.385,0,1069.762l.2.4c37.935-13.377,69.88-36.937,90.045-66.685,21.962-32.145,29.15-71.278,36.338-109.212,1.6-8.985,3.394-18.368,5.391-27.553,7.787-37.136,20.964-71.876,37.935-100.228,19.566-32.544,43.525-56.7,71.876-72.076,1.6-.8,3.195-1.8,4.792-2.6,19.367-10.382,41.329-22.162,48.117-45.921,4.792-17.171-1.2-31.945-6.788-46.32-2.995-7.587-5.99-15.374-7.387-23.16-4.193-24.159,9.983-51.511,33.143-63.491,8.985-4.592,19.367-7.387,29.15-9.983,8.985-2.4,18.169-4.792,26.355-8.585,17.769-8.386,29.549-23.959,35.938-47.518,5.191-19.167-5.59-35.14-16.172-50.713-9.783-14.375-19.966-29.35-16.172-46.52,2-8.985,7.986-17.37,17.37-24.159,7.986-5.79,18.568-10.382,29.749-12.978,8.386-2,16.771-3.394,24.957-4.792,13.177-2.2,25.756-4.392,37.136-8.585,21.363-7.587,37.336-23.36,43.725-43.126,7.587-23.36-.4-42.727-10.582-52.909-4.792-13.377-15.773-27.952-26.754-41.928h0c-33.343-19.367-54.506-41.529-64.888-67.684a86.67,86.67,0,0,1-3.394-50.912C424.471,24.159,434.853,9.184,449.228.6Z" fill="#878787"/>
    </g>
    <g id="Group_859" data-name="Group 859" transform="translate(178.798 251.967)">
      <path id="Path_785" data-name="Path 785" d="M440.842.4c-14.575,8.785-24.558,24.158-28.551,42.926-3.594,17.37-1.8,36.138,5.191,51.711,11.181,25.356,33.742,40.93,55.3,55.7,4.792,3.195,9.583,6.589,14.176,9.983,11.38,8.186,19.167,19.367,26.155,29.15q3.294,4.792,6.589,8.985c14.176,18.368,18.568,35.739,12.978,53.109-6.189,19.566-22.561,34.74-44.723,41.529-10.781,3.394-22.362,4.991-34.541,6.788-9.184,1.4-18.568,2.6-27.952,4.792-18.967,4.393-42.727,16.971-46.919,38.334-3.394,17.769,7.188,33.143,17.57,47.918C407.1,406.9,418.281,423.073,413.29,442.44c-5.59,21.363-18.568,36.937-37.136,44.923-7.787,3.394-16.372,5.59-24.757,7.587-10.382,2.6-21.164,5.391-30.747,10.382-11.38,5.99-20.964,16.172-26.954,28.551-5.79,12.179-7.787,25.357-5.391,37.336,1.6,8.186,4.991,16.172,8.386,23.959,6.189,14.575,12.578,29.549,7.986,46.32-6.389,23.36-28.551,34.74-48.317,44.723-2,1-3.993,2-5.99,3.195-29.15,15.174-54.307,39.931-74.472,73.474-17.37,28.751-31.346,64.29-39.931,102.823-2,8.785-3.793,17.769-5.59,26.554C122.39,931,114.4,971.132,91.243,1003.676,70.878,1032.426,38.534,1055.587,0,1068.964l.2.4c38.534-13.377,70.878-36.737,91.443-65.487,23.16-32.544,31.346-72.675,39.133-111.608,1.8-8.785,3.594-17.769,5.59-26.554,8.785-38.534,22.561-74.073,39.931-102.823,20.365-33.542,45.322-58.1,74.272-73.274l5.99-2.995c19.766-9.983,42.128-21.563,48.517-44.923,4.592-17.17-1.8-32.145-7.986-46.72-3.394-7.787-6.788-15.773-8.386-23.959-2.4-11.78-.4-24.957,5.391-37.136,5.99-12.179,15.374-22.362,26.754-28.351,9.584-4.991,20.165-7.787,30.548-10.382,8.386-2.2,16.971-4.193,24.757-7.587,18.768-8.186,31.745-23.759,37.336-45.322,5.191-19.367-6.189-35.739-17.171-51.312-10.382-14.775-20.964-29.949-17.57-47.718,4.193-21.164,27.752-33.742,46.52-38.135,9.384-2.2,18.768-3.594,27.752-4.792,12.179-1.8,23.759-3.394,34.541-6.788,22.362-6.988,38.733-22.162,44.923-41.928,5.59-17.57,1.4-34.94-12.978-53.508-2.2-2.8-4.193-5.79-6.589-8.984-6.988-9.783-14.775-20.964-26.155-29.15-4.592-3.394-9.583-6.788-14.176-9.983-21.563-14.974-44.124-30.348-55.3-55.7a85.541,85.541,0,0,1-4.991-51.511C416.285,23.959,426.268,8.785,440.643,0Z" fill="#878787"/>
    </g>
    <g id="Group_860" data-name="Group 860" transform="translate(181.393 259.155)">
      <path id="Path_786" data-name="Path 786" d="M432.657,0c-31.147,19.566-36.138,65.487-20.964,96.235,13.577,27.952,40.131,43.525,65.887,58.7,2.8,1.6,5.59,3.394,8.386,4.991,15.773,9.384,27.553,22.362,38.135,33.742l.4.6c8.985,9.583,22.761,29.549,15.374,53.508-5.99,19.167-23.16,34.141-45.921,40.331-10.382,2.8-20.964,3.993-32.344,5.391-9.983,1.2-20.165,2.4-30.348,4.592a78.122,78.122,0,0,0-29.749,13.577c-9.384,7.188-15.174,16.172-16.771,25.756-3.195,18.368,7.986,33.942,18.967,49.116,11.38,15.973,23.16,32.344,18.169,51.711-4.991,19.766-18.768,34.94-38.534,42.727-7.387,2.8-15.374,4.792-22.961,6.788-10.981,2.6-22.362,5.391-32.344,10.981a64.372,64.372,0,0,0-26.754,29.549c-5.79,12.578-7.387,26.155-4.592,38.534,1.8,8.386,5.59,16.771,9.384,24.757,6.788,14.775,13.577,29.949,9.184,46.919-6.189,23.16-28.751,34.141-48.716,43.725-2.6,1.2-4.792,2.4-7.188,3.594-29.949,14.974-55.9,40.131-77.068,74.672-18.169,29.549-32.145,65.088-41.928,105.419-2,8.386-3.993,17.17-5.79,25.756-8.785,39.732-17.769,81.061-42.128,113.8-14.575,19.766-42.527,46.919-92.441,64.29l.2.4c27.752-9.583,66.286-28.551,92.641-64.29,24.358-32.943,33.343-74.073,42.128-114,1.8-8.386,3.793-17.17,5.79-25.756,9.584-40.331,23.759-75.67,41.728-105.219,21.164-34.341,46.919-59.5,76.868-74.472,2.4-1.2,4.592-2.4,7.188-3.594,20.165-9.783,42.926-20.764,49.116-44.124,4.592-17.17-2.4-32.344-9.184-47.119-3.594-7.986-7.387-16.172-9.184-24.558-2.8-12.179-1-25.756,4.592-38.135a64.469,64.469,0,0,1,26.554-29.35c9.983-5.391,21.363-8.186,32.145-10.781a154.1,154.1,0,0,0,23.16-6.788c19.966-7.787,33.742-23.16,38.733-43.126,4.991-19.566-6.788-36.138-18.169-52.11-10.781-14.974-21.962-30.548-18.768-48.716,1.6-9.583,7.387-18.368,16.571-25.356,7.986-6.189,18.568-10.981,29.549-13.577,10.182-2.4,20.365-3.394,30.348-4.592,11.38-1.4,21.962-2.6,32.344-5.391,22.961-6.189,40.331-21.363,46.32-40.73,3.195-10.382,5.59-31.346-15.374-53.907l-.4-.6c-10.582-11.38-22.561-24.358-38.334-33.742-2.8-1.6-5.59-3.394-8.386-4.991-25.556-15.174-52.11-30.747-65.687-58.5C397.517,66.086,402.309,20.365,433.455,1Z" fill="#878787"/>
    </g>
    <g id="Group_861" data-name="Group 861" transform="translate(183.19 266.143)">
      <path id="Path_787" data-name="Path 787" d="M425.469,0c-14.375,9.184-23.959,25.157-26.954,44.723-2.8,18.169.2,37.535,8.585,52.909,16.771,31.346,49.715,47.319,78.865,61.494a189.761,189.761,0,0,1,44.723,30.348c7.387,6.988,13.177,15.174,16.372,23.959a46.1,46.1,0,0,1,1.2,30.148,51.684,51.684,0,0,1-18.568,25.955c-7.986,6.189-17.969,10.582-28.751,13.177-9.983,2.2-20.165,3.195-30.947,3.993-10.582.8-21.363,1.8-32.145,4.193-20.565,4.592-42.926,18.768-46.121,40.131-2.995,18.768,8.785,34.74,20.165,50.114,11.78,16.172,24.159,32.744,19.167,52.51-4.592,18.368-19.167,33.143-39.931,40.53a195.125,195.125,0,0,1-21.164,5.79c-11.58,2.6-23.559,5.391-33.942,11.381-23.56,13.377-36.937,44.124-30.548,70.08,2.2,8.785,6.189,17.17,10.182,25.356,7.188,14.974,14.775,30.348,10.382,47.319-5.99,22.961-28.95,33.542-49.315,42.926-2.995,1.4-5.59,2.6-8.386,3.993-30.947,14.974-57.7,40.53-79.663,75.87-18.568,29.949-33.143,66.086-43.725,107.815-2,8.186-3.993,16.572-5.99,24.757-9.584,40.93-19.566,83.057-45.122,116.2C72.875,1033.025,40.331,1054.788,0,1068.764l.2.4c40.331-13.976,72.875-35.739,94.038-63.291,25.556-33.143,35.539-75.47,45.122-116.4,2-8.186,3.793-16.572,5.99-24.757,10.582-41.728,25.157-77.866,43.725-107.815,21.962-35.339,48.716-60.9,79.463-75.67,2.8-1.4,5.391-2.6,8.386-3.993,20.365-9.384,43.525-20.165,49.515-43.126,4.392-17.171-2.995-32.544-10.382-47.518-3.993-8.186-7.986-16.572-10.183-25.356-6.389-25.756,6.988-56.3,30.348-69.481,10.382-5.99,22.362-8.585,33.942-11.38a198.565,198.565,0,0,0,21.363-5.79c20.964-7.387,35.539-22.162,40.131-40.73,4.991-19.966-7.387-36.737-19.367-52.909-11.38-15.374-22.961-31.346-20.165-49.914,3.394-21.363,25.357-35.339,45.921-39.931,10.582-2.4,21.563-3.394,32.145-4.193,10.781-1,20.964-1.8,30.947-3.993a73.1,73.1,0,0,0,28.751-13.177c9.384-7.188,15.573-15.973,18.768-26.155a46.646,46.646,0,0,0-1.2-30.348,64.749,64.749,0,0,0-16.571-24.158,184.617,184.617,0,0,0-44.723-30.548c-28.95-14.176-61.894-30.148-78.665-61.295a84.452,84.452,0,0,1-8.386-52.51C402.109,25.357,411.693,9.584,425.868.4Z" fill="#878787"/>
    </g>
    <g id="Group_862" data-name="Group 862" transform="translate(185.386 272.931)">
      <path id="Path_788" data-name="Path 788" d="M417.682,0c-14.375,9.384-23.56,25.556-26.355,45.522-2.4,18.568,1.2,38.135,10.182,53.508,17.969,30.547,50.713,46.52,83.457,59.3,17.57,6.788,35.739,14.375,50.713,26.554,21.563,17.57,24.159,40.331,19.966,54.506-6.589,22.362-29.549,34.141-48.517,37.735-9.783,1.8-19.966,2.4-29.749,2.995-10.981.6-22.561,1.2-33.542,3.594-20.565,4.393-42.727,18.967-45.921,41.129-2.6,19.367,9.583,35.539,21.563,51.312,12.379,16.372,25.157,33.343,20.365,53.308-2,8.186-9.983,28.551-41.129,38.334-6.189,2-12.978,3.394-19.367,4.792-12.179,2.6-24.957,5.391-35.938,11.78-23.759,13.776-36.737,45.522-29.749,72.076,2.4,8.985,6.788,17.77,11.181,26.155,7.986,15.773,15.773,30.747,11.38,47.718-5.79,22.761-29.15,32.943-49.715,42.128-3.394,1.4-6.389,2.8-9.584,4.193C203.45,710.779,166.714,797.43,149.144,864.115c-2,7.787-3.993,15.773-5.99,23.56-10.582,41.928-21.363,85.254-48.117,118.8C73.673,1033.225,41.529,1054.189,0,1068.365l.2.4c41.728-14.375,73.873-35.14,95.236-62.093,26.754-33.542,37.735-77.068,48.117-119,2-7.787,3.993-15.773,5.99-23.56,17.769-66.685,54.307-153.137,127.581-187.078q4.492-2.1,9.584-4.193c20.764-9.184,44.324-19.566,50.114-42.327,4.392-17.17-3.793-32.744-11.38-47.918-4.393-8.386-8.785-17.17-11.181-26.155-6.988-26.355,5.79-57.9,29.549-71.477,10.981-6.389,23.56-9.184,35.739-11.78,6.389-1.4,12.978-2.8,19.367-4.792,10.382-3.195,35.539-13.577,41.529-38.534,4.792-20.165-7.986-37.136-20.365-53.708-11.78-15.773-23.959-31.945-21.363-50.913,2.2-15.773,17.17-34.541,45.522-40.73,11.181-2.4,22.561-2.995,33.542-3.594,9.783-.6,19.966-1,29.749-2.995,19.167-3.594,42.128-15.573,48.916-38.134,2.995-9.783,2.2-20.365-2-30.747a61.48,61.48,0,0,0-18.169-24.159c-14.974-12.179-33.343-19.966-50.713-26.754-32.744-12.578-65.288-28.551-83.257-59.1-8.985-15.174-12.578-34.541-10.182-53.109,2.6-19.766,11.78-35.739,26.155-45.122Z" fill="#878787"/>
    </g>
    <g id="Group_863" data-name="Group 863" transform="translate(187.782 279.719)">
      <path id="Path_789" data-name="Path 789" d="M409.9,0c-14.176,9.584-23.36,26.155-25.556,46.321-2,18.967,2.2,38.733,11.979,53.907,16.372,25.756,44.324,43.924,88.049,57.1,2.8.8,5.79,1.8,8.585,2.6,16.572,4.792,33.942,9.783,48.117,20.165,15.174,11.181,28.751,33.143,22.362,54.906-4.193,14.575-19.566,31.945-49.914,36.537-9.583,1.4-19.367,1.6-28.751,1.8-11.38.2-23.36.6-34.74,2.995-10.981,2.4-21.563,7.387-29.549,14.375-9.184,7.787-14.575,17.37-15.773,27.752-2.4,19.766,10.382,36.338,22.761,52.51,13.377,17.37,26.155,33.742,21.363,54.107-2,8.985-7.387,16.771-15.973,23.36-8.985,6.988-19.367,10.582-26.554,12.578a164.266,164.266,0,0,1-17.17,3.793c-12.978,2.6-26.355,5.391-38.135,12.379-23.959,14.375-36.737,46.919-28.751,74.073,2.6,9.384,7.587,18.169,12.179,26.954,8.585,15.973,16.771,30.947,12.578,48.117-5.59,22.561-28.351,31.945-50.314,41.329-3.793,1.6-7.188,2.995-10.582,4.592-32.744,14.575-61.295,40.93-84.854,78.465-19.167,30.547-35.14,68.482-47.518,112.806-2,7.387-3.993,14.974-5.99,22.362-11.38,43.126-23.16,87.649-51.312,121.391-21.763,26.355-53.308,46.121-96.434,60.9l.2.4c43.126-14.775,74.672-34.541,96.634-60.9,28.152-33.942,39.931-78.465,51.312-121.591,2-7.387,3.993-14.974,5.99-22.362,12.379-44.324,28.351-82.259,47.518-112.607,23.559-37.336,51.911-63.491,84.655-78.266,3.394-1.6,6.988-2.995,10.582-4.592,22.162-9.184,44.923-18.768,50.513-41.529,4.193-17.17-3.993-32.344-12.578-48.317-4.592-8.585-9.384-17.57-12.179-26.754-7.787-26.954,4.792-59.3,28.551-73.673,11.58-6.988,24.957-9.584,37.935-12.379,5.59-1.2,11.58-2.4,17.17-3.793,7.188-2,17.57-5.79,26.754-12.778,8.585-6.589,14.176-14.575,16.172-23.56,4.792-20.365-8.585-37.735-21.563-54.506-12.379-15.973-25.157-32.544-22.761-52.111,1.2-10.182,6.589-19.766,15.773-27.353a67.174,67.174,0,0,1,29.35-14.176c11.38-2.4,23.36-2.8,34.74-2.995,9.584-.2,19.367-.4,28.95-1.8,11.181-1.8,22.162-5.79,30.747-11.58,9.783-6.589,16.571-15.374,19.566-25.356,6.389-21.962-7.188-44.124-22.561-55.3-14.176-10.382-31.546-15.374-48.317-20.365-2.8-.8-5.79-1.6-8.585-2.6-43.725-13.177-71.477-31.346-87.649-56.9-9.584-15.174-13.976-34.74-11.78-53.708,2.2-19.966,11.181-36.338,25.356-45.921Z" fill="#878787"/>
    </g>
  </g>
</svg>
